<?xml version="1.0" encoding="UTF-8" standalone="no"?>
<svg
   xmlns:dc="http://purl.org/dc/elements/1.1/"
   xmlns:cc="http://creativecommons.org/ns#"
   xmlns:rdf="http://www.w3.org/1999/02/22-rdf-syntax-ns#"
   xmlns:svg="http://www.w3.org/2000/svg"
   xmlns="http://www.w3.org/2000/svg"
   xmlns:sodipodi="http://sodipodi.sourceforge.net/DTD/sodipodi-0.dtd"
   xmlns:inkscape="http://www.inkscape.org/namespaces/inkscape"
   version="1.1"
   id="svg2"
   xml:space="preserve"
   width="4000"
   height="2666.6667"
   viewBox="0 0 4000 2666.6667"
   sodipodi:docname="10610.eps"><metadata
     id="metadata8"><rdf:RDF><cc:Work
         rdf:about=""><dc:format>image/svg+xml</dc:format><dc:type
           rdf:resource="http://purl.org/dc/dcmitype/StillImage" /></cc:Work></rdf:RDF></metadata><defs
     id="defs6" /><sodipodi:namedview
     pagecolor="#ffffff"
     bordercolor="#666666"
     borderopacity="1"
     objecttolerance="10"
     gridtolerance="10"
     guidetolerance="10"
     inkscape:pageopacity="0"
     inkscape:pageshadow="2"
     inkscape:window-width="640"
     inkscape:window-height="480"
     id="namedview4" /><g
     id="g10"
     inkscape:groupmode="layer"
     inkscape:label="ink_ext_XXXXXX"
     transform="matrix(1.3333333,0,0,-1.3333333,0,2666.6667)"><g
       id="g12"
       transform="scale(0.1)"><path
         d="M 0,0 H 30000 V 20000 H 0 Z"
         style="fill:#ffffff;fill-opacity:1;fill-rule:nonzero;stroke:none"
         id="path14" /><path
         d="m 25250.1,1560.7 c -1565.8,0 -21315.45,-10.6 -21315.45,-8.1 -8.73,20.4 -3607.951,4052 675.2,7436.1 2074.04,1638.7 -1224.96,4145.8 1397.61,6698.7 1145.16,1114.7 2315.06,883.4 3512.71,652 894.03,-172.8 1803.63,-345.5 2729.83,41.8 382.9,160 767.1,417.4 1151.7,812.5 216.5,222.1 453.8,416.4 707.8,584.1 38.9,25.8 78.3,51.1 118,75.6 152.1,93.7 309.8,178.5 472.3,254.8 109.1,51.1 220.2,98.4 333.5,141.9 h 0.1 c 179.6,69 364.2,128.6 552.7,178.9 267.7,71.6 543.3,124.8 824.4,160.8 122.6,15.8 246.2,28.2 370.7,37.6 2421.3,180.9 5146.2,-837 6552.4,-2324.7 283.2,-299.6 1570.5,-1849.8 555.7,-3980.4 -640.7,-1345.2 1911.8,-3095.6 2507.3,-4822.1 1499.1,-4346 -1124.5,-5888.6 -1146.5,-5939.5"
         style="fill:#ebf3fa;fill-opacity:1;fill-rule:nonzero;stroke:none"
         id="path16" /><path
         d="m 18857.1,13284.3 c -63.4,100.3 -135.5,188.9 -210.4,266.6 170.1,429 417,889.4 770.5,1255.2 651.3,674 1294.3,988.9 1629.5,988.9 140.6,0 227,-55.3 237.2,-162.8 34.6,-363.8 -1448.8,-938.7 -2036.6,-1758 -144.4,-201.3 -275.1,-401.8 -390.2,-589.9"
         style="fill:#d9e8fa;fill-opacity:1;fill-rule:nonzero;stroke:none"
         id="path18" /><path
         d="m 19091.1,12680.1 c -17.8,51.3 -32.9,103.7 -45.4,156.7 -14.3,60.8 -32.1,118.8 -52.8,174.3 130.2,210.8 290.3,416.5 485,585.7 490,426 954.1,617.2 1208.2,617.2 125.7,0 200,-46.8 200.7,-135 2.1,-266.5 -1112.4,-590.5 -1591.4,-1148.7 -72,-83.9 -140.2,-168 -204.3,-250.2"
         style="fill:#d9e8fa;fill-opacity:1;fill-rule:nonzero;stroke:none"
         id="path20" /><path
         d="m 20584.5,9548.6 c -118.8,0 -240.4,6.3 -359.4,19.6 -19.9,388.8 -127.4,681 -235,881 196.4,-103 849.6,-34.6 1161.8,-300.3 313.1,-266.6 566.7,-430.9 -15.3,-549.9 -158.5,-32.4 -351.2,-50.4 -552.1,-50.4 m 1136.1,600 c -15.4,0 -30.9,0.7 -46.5,2.2 -626.7,60.1 -820.4,448.1 -1208.4,478.2 -46.1,3.6 -90.8,5.3 -133.4,5.3 -198.5,0 -351.3,-36.5 -394.5,-86.5 -99.4,200.8 -160,418.3 -178.4,641.5 -25,303.2 -118,555 -227.2,753.6 14.8,376.8 -5.2,775.8 -5.2,775.8 0,0 1090.7,523.8 1585.6,523.8 19.6,0 38.4,-0.8 56.1,-2.6 0,0 -714.7,-1208.9 -501.3,-1208.9 2.6,0 5.3,0.2 8.1,0.6 238.8,29.7 1060.3,1282.6 1060.3,1282.6 0,0 178,32.9 408.4,32.9 369.9,0 874.7,-84.8 993.9,-526.2 193.6,-716.4 -120,-1074.3 -299.1,-1119 -179.1,-44.6 -1328.1,-29 -1298.3,-178.2 23.6,-118.5 517.8,-293.8 937,-293.8 108.6,0 212.3,11.8 301.3,39.3 0,0 -454.7,-1120.6 -1058.4,-1120.6 m -2409.5,2117.5 c -56,74 -104.5,153 -145.4,235.6 64.2,34.2 130.3,62.8 197,82.8 0,0 -25.5,-135.3 -51.6,-318.4"
         style="fill:#d9e8fa;fill-opacity:1;fill-rule:nonzero;stroke:none"
         id="path22" /><path
         d="m 10039.9,9420.6 c -266.38,91.5 -570.37,185.1 -892.46,264.8 -207.8,51.4 -437.65,70.4 -674.37,70.4 -337.34,0 -688.59,-38.6 -1009.67,-77.3 -321.13,-38.6 -612.02,-77.2 -828.72,-77.2 -179.51,0 -308.13,26.5 -360.68,101.5 -195.11,278.5 462.36,647.9 1570.25,647.9 163.68,0 337.24,-8.1 519.28,-25.7 625.89,-60.6 1223.34,-322.9 1694.97,-596.6 -9.6,-80.4 -15.4,-165.5 -16.6,-255.4 -0.3,-17.5 -0.9,-35 -2,-52.4"
         style="fill:#d9e8fa;fill-opacity:1;fill-rule:nonzero;stroke:none"
         id="path24" /><path
         d="m 7856.86,8660.7 c -86.97,0 -150.81,15.7 -183.8,55 -180.6,215.3 426.59,584.6 1438.98,584.6 13.33,0 26.77,0 40.24,-0.2 288.92,-2.7 574.69,-64.4 836.65,-151.9 -18.08,-56.8 -40.67,-112.2 -67.58,-165.8 -17.08,-34.1 -34.63,-72.4 -51.85,-115.2 -35.34,6.1 -71.07,12 -107.02,17.7 -84.9,13.3 -174.02,19.1 -265.68,19.1 -297.61,0 -621.95,-60.8 -914.7,-121.7 -292.78,-60.8 -553.94,-121.6 -725.24,-121.6"
         style="fill:#d9e8fa;fill-opacity:1;fill-rule:nonzero;stroke:none"
         id="path26" /><path
         d="m 9832.16,6403.2 c -79.98,2.9 -70.56,92.1 -45.68,217.5 10.27,-70 25.08,-142.8 45.68,-217.5 m -548.1,30 c -303.5,0 -673.47,209.9 -673.47,209.9 256.55,99.2 535.83,505.3 493.79,587.5 -3.57,7 -10.77,10.2 -20.99,10.2 -109.95,0 -570.9,-372 -664.31,-414.2 -19.13,-8.7 -44.68,-13.9 -74.7,-13.9 -130.16,0 -344.77,97.6 -489.12,434 -177.63,414 481.93,763 481.93,763 0,0 673.52,-224.2 916.63,-224.2 32.09,0 56.66,3.9 71.22,12.8 124.87,75.8 -689.89,389.6 -689.89,389.6 203.27,195.6 977.98,370.1 977.98,370.1 0,0 55.58,-78.1 133.89,-179.3 -33.73,-273.7 -25.79,-620 73.37,-1043.8 0,0 -61.67,-202.9 -52.95,-496.7 -40.52,-98.7 -98.13,-204.6 -209.56,-311.5 -71.06,-68.2 -168.46,-93.5 -273.82,-93.5 m 486.98,2096.9 c -18.39,16.5 -29.18,25.8 -29.18,25.8 12.13,4.8 24.57,9.3 37.21,13.3 -2.77,-12.8 -5.44,-25.8 -8.03,-39.1"
         style="fill:#d9e8fa;fill-opacity:1;fill-rule:nonzero;stroke:none"
         id="path28" /><path
         d="m 15403.4,14248.4 c 0,0 920.9,679.4 2584.4,-246.5 0,0 860.6,-327.2 1057.9,-1165.1 52.1,-221.5 150.5,-429.7 294.2,-607.6 174.1,-215.4 380.3,-564.5 419.5,-1039.9 20.7,-251.8 95.3,-496.4 218.5,-717.8 144.1,-258.7 293.9,-683.1 238.9,-1283 0,0 532.3,-574.1 232.8,-1853.6 0,0 243.7,-802.1 -306.2,-1525.4 0,0 137,-923 -658.5,-1232.4 0,0 -419.9,-959.9 -1670.1,-1018.2 -181.1,-8.5 -358.9,-49.6 -526.9,-117 -238,-95.6 -665.4,-188.8 -1279.6,-27.3 -998.1,262.5 -897.9,868.1 -897.9,868.1 v 9818.5 l 293,147.2"
         style="fill:#f78248;fill-opacity:1;fill-rule:nonzero;stroke:none"
         id="path30" /><path
         d="m 14866.6,14248.4 c 0,0 -920.9,679.4 -2584.3,-246.5 0,0 -901.7,-342.8 -1070.8,-1225.1 -35.6,-186.1 -121.3,-359.7 -245.4,-504.4 -190.9,-222.6 -440.8,-617.3 -460.7,-1173.3 -7.1,-197.2 -67,-388.6 -171.7,-556.9 -131.2,-211 -285.1,-564.7 -291.8,-1069.2 -2.3,-170.4 -43.9,-337.9 -120.55,-490.6 -134.65,-268.3 -298.12,-805 -100.96,-1647.5 0,0 -189.3,-623 142.33,-1266.1 88.58,-171.7 143.98,-358.3 160.88,-550.2 22,-249.2 115.4,-602.4 442.1,-826.6 142.7,-97.9 266.3,-220.4 369.2,-358.6 208.4,-280.3 653.4,-709.9 1449.1,-770.2 218.5,-16.5 433.5,-61.9 639,-137 244.5,-89.4 658.3,-164.2 1238.8,-11.6 998,262.5 897.8,868.1 897.8,868.1 v 9818.5 l -293,147.2"
         style="fill:#f78248;fill-opacity:1;fill-rule:nonzero;stroke:none"
         id="path32" /><path
         d="m 14300.8,7728 c -444.4,54.1 -801.2,307.8 -1060.5,754.1 -1,1.8 -2.1,3.6 -3.1,5.3 -122.1,211.7 -52.3,479.9 155.1,612.2 41.7,26.6 77.5,56.1 101.4,87.4 0,0 -448.2,-64.8 -989.7,157.8 -317.6,130.5 -532.7,402.5 -532.7,402.5 6,-8.7 29.3,-297.3 294.1,-538.5 77,-70.1 256.8,-160.1 386.2,-188.6 133.9,-29.4 190.7,-162.2 240.1,-288.4 41.4,-105.7 95.6,-224.6 165.5,-345.8 116.7,-202 254.7,-370.9 411.2,-504.7 -300.2,-133.9 -468.9,-341.6 -560.2,-502.9 -114.5,-202.4 -135,-376.9 -135.8,-384.2 0,0 111.4,215.3 347.2,425.1 208.4,185.3 483.5,278.3 763.8,266.2 196.2,-8.5 417.4,42.5 417.4,42.5"
         style="fill:#ea7147;fill-opacity:1;fill-rule:nonzero;stroke:none"
         id="path34" /><path
         d="m 12408.1,6409.3 c -23,0 -46.1,0.7 -69.2,2 -311.7,18.2 -578.5,163.5 -771.3,420 -300.3,399.3 -231.9,762.6 -121.7,997 1.3,2.7 2.6,5.4 3.9,8.1 45.7,95.2 71.3,-82.9 65.8,-188 -11.8,-225.4 165.9,-573.5 387,-762.1 255.9,-218.2 670.4,-213.3 986.4,-223.9 118.3,-3.9 218.1,-11.8 112.5,-82.5 -151.1,-101.2 -383.2,-170.6 -593.4,-170.6"
         style="fill:#ea7147;fill-opacity:1;fill-rule:nonzero;stroke:none"
         id="path36" /><path
         d="m 11767.5,5215.9 c -107.9,-57 -242.3,-21.4 -306.4,81.5 -377.9,606.5 -884.3,1046.5 -890.8,1049.5 31.7,-14.5 780.3,-363.4 1197.2,-1131"
         style="fill:#ea7147;fill-opacity:1;fill-rule:nonzero;stroke:none"
         id="path38" /><path
         d="m 10736.3,8299 c 89.9,171 325.8,234.7 508.7,257.9 217.7,27.6 522.5,-10.7 522.5,-10.7 -28.6,3.4 -479.2,419.6 -990.1,95.5 -32.1,307.3 -410.1,441.5 -410.1,441.5 0.6,-0.8 62.5,-84.3 115.1,-205.3 47.8,-109.8 97.8,-273.8 64.3,-431.7 -31.3,-147.9 -133,-271.2 -302.1,-366.5 0,0 358.4,-70.1 491.7,219.3"
         style="fill:#ea7147;fill-opacity:1;fill-rule:nonzero;stroke:none"
         id="path40" /><path
         d="m 13371.3,10001.3 c 185.3,54.8 395.4,-69.9 539.5,-184.9 171.6,-136.8 356.7,-382 356.7,-382 -17.6,22.8 -33.3,636 -621.8,776.4 197.9,237.2 30.5,601.8 30.5,601.8 -0.1,-1 -16.8,-103.6 -66.8,-225.7 -45.4,-110.8 -128.2,-260.9 -264.7,-347 -127.9,-80.7 -287.1,-93.8 -473.4,-39 0,0 199.6,-305.8 500,-199.6"
         style="fill:#ea7147;fill-opacity:1;fill-rule:nonzero;stroke:none"
         id="path42" /><path
         d="m 16111,8142 c 481.5,58.6 868,333.4 1148.9,816.8 1.1,2 2.2,3.9 3.3,5.8 132.3,229.4 56.7,519.9 -168,663.2 -45.2,28.8 -83.9,60.7 -109.8,94.7 0,0 485.5,-70.2 1072.1,170.9 344.1,141.4 577.1,436 577.1,436 -6.5,-9.4 -31.7,-322 -318.7,-583.3 -83.3,-75.9 -278.1,-173.5 -418.3,-204.3 -145,-31.9 -206.5,-175.7 -260.1,-312.5 -44.8,-114.5 -103.5,-243.2 -179.3,-374.6 -126.4,-218.8 -275.9,-401.8 -445.4,-546.7 325.2,-145.1 508,-370 606.8,-544.7 124.1,-219.3 146.2,-408.3 147.1,-416.3 0,0 -120.6,233.2 -376.1,460.5 -225.7,200.8 -523.7,301.5 -827.4,288.4 -212.5,-9.2 -452.2,46.1 -452.2,46.1"
         style="fill:#ea7147;fill-opacity:1;fill-rule:nonzero;stroke:none"
         id="path44" /><path
         d="m 17853.7,6409.3 c 23,0 46,0.7 69.1,2 311.8,18.2 578.5,163.5 771.4,420 300.2,399.3 231.9,762.6 121.6,997 -1.3,2.7 -2.5,5.4 -3.8,8.1 -45.8,95.2 -71.3,-82.9 -65.8,-188 11.7,-225.4 -165.9,-573.5 -387,-762.1 -255.9,-218.2 -670.5,-213.3 -986.4,-223.9 -118.3,-3.9 -218.1,-11.8 -112.5,-82.5 151,-101.2 383.2,-170.6 593.4,-170.6"
         style="fill:#ea7147;fill-opacity:1;fill-rule:nonzero;stroke:none"
         id="path46" /><path
         d="m 16445.8,10171.8 c 16.8,5.9 33.5,12.3 50,19.2 222.8,93 379.4,267.3 452.8,504 114.2,368.4 -31.3,616.2 -173.5,759.2 -1.7,1.6 -3.3,3.3 -5,4.9 -58.4,57.8 -30.2,-78.7 1.5,-154.1 67.9,-161.6 29.7,-461.3 -82.1,-655.5 -129.5,-224.9 -433.5,-327.3 -661.4,-415.9 -85.4,-33.1 -156.2,-64.4 -60.5,-89 136.9,-35.2 324.7,-26.5 478.2,27.2"
         style="fill:#ea7147;fill-opacity:1;fill-rule:nonzero;stroke:none"
         id="path48" /><path
         d="m 18018.4,5266.5 c 83.8,-88.1 222.7,-96.7 316.8,-19.4 554.7,455.5 1177.2,712.8 1184.3,713.6 -34.7,-3.8 -857.2,-98.3 -1501.1,-694.2"
         style="fill:#ea7147;fill-opacity:1;fill-rule:nonzero;stroke:none"
         id="path50" /><path
         d="m 18246.9,11491.9 c -89.9,171.1 -325.8,234.7 -508.7,257.9 -217.7,27.7 -522.6,-10.6 -522.6,-10.6 28.7,3.3 479.3,419.5 990.2,95.4 32.1,307.3 410.1,441.5 410.1,441.5 -0.6,-0.8 -62.5,-84.2 -115.1,-205.2 -47.8,-109.8 -97.8,-273.8 -64.3,-431.7 31.3,-147.9 133,-271.2 302.1,-366.5 0,0 -358.4,-70.2 -491.7,219.2"
         style="fill:#ea7147;fill-opacity:1;fill-rule:nonzero;stroke:none"
         id="path52" /><path
         d="m 19525.4,8299 c -89.8,171 -325.7,234.7 -508.6,257.9 -217.7,27.6 -522.6,-10.6 -522.6,-10.6 28.7,3.3 479.2,419.5 990.1,95.4 32.1,307.3 410.2,441.5 410.2,441.5 -0.6,-0.8 -62.5,-84.3 -115.2,-205.3 -47.8,-109.8 -97.7,-273.8 -64.2,-431.7 31.3,-147.9 132.9,-271.2 302,-366.5 0,0 -358.4,-70.1 -491.7,219.3"
         style="fill:#ea7147;fill-opacity:1;fill-rule:nonzero;stroke:none"
         id="path54" /><path
         d="m 15247.3,4064.9 -224.6,0.5 24.7,10036.1 224.5,-0.6 -24.6,-10036"
         style="fill:#ea7147;fill-opacity:1;fill-rule:nonzero;stroke:none"
         id="path56" /><path
         d="m 21150.6,7842.6 c 0,0 -28.2,63.6 -46.5,93.7 -18.3,30.1 -96.5,118.3 -109.9,98.3 -13.3,-20 -66.5,-154.3 -38.2,-192 28.3,-37.6 -1.8,-103.1 138.8,-142.7 l 55.8,142.7"
         style="fill:#ffb27d;fill-opacity:1;fill-rule:nonzero;stroke:none"
         id="path58" /><path
         d="m 22714,8244 c 0,0 -720.2,-601.1 -1001,-545.5 -219.5,43.5 -556.5,159.1 -556.5,159.1 l -67.4,-172.4 c 0,0 302.2,-409.9 617.3,-412.6 492.5,-4.2 856.3,213.2 856.3,213.2 L 22714,8244"
         style="fill:#6980e0;fill-opacity:1;fill-rule:nonzero;stroke:none"
         id="path60" /><path
         d="m 23976.9,1903.4 c 0,0 -20.9,-337.2 -86.1,-342.1 -8.7,-0.6 -330.9,-0.6 -330.9,-0.6 l -411.4,2.4 c 0,0 2.7,99.1 123,120 120.2,21 321.4,105.5 394.3,264.4 76.6,167.2 311.1,-44.1 311.1,-44.1"
         style="fill:#20497a;fill-opacity:1;fill-rule:nonzero;stroke:none"
         id="path62" /><path
         d="m 24000.6,1880 c 0,0 -125,-41.8 -222.6,-41.8 -108.9,0 -207.9,29.6 -207.9,29.6 0,0 -23.6,227.7 -153.1,729.3 -67.9,263 -164.9,601 -302.9,1021.1 -381.6,1161 -497.6,1840.2 -508.2,1904.5 -0.6,3.4 -0.8,5.1 -0.8,5.1 l 1.3,0.5 1173,515.1 c 0,0 -145,-1600.1 40,-2214.3 25.9,-85.8 48.1,-185.9 67.1,-294.3 116.8,-667.1 114.1,-1654.8 114.1,-1654.8"
         style="fill:#f99746;fill-opacity:1;fill-rule:nonzero;stroke:none"
         id="path64" /><path
         d="m 23417,2597.1 c -67.9,263 -164.9,601 -302.9,1021.1 -381.6,1161 -497.6,1840.2 -508.2,1904.5 0.1,1.9 0.2,3.7 0.5,5.6 l 1173,515.1 c 0,0 -145,-1600.1 40,-2214.3 25.9,-85.8 -402.4,-1232 -402.4,-1232"
         style="fill:#ed7d2b;fill-opacity:1;fill-rule:nonzero;stroke:none"
         id="path66" /><path
         d="m 23060.7,1903.4 c 0,0 -20.9,-337.2 -86.1,-342.1 -8.7,-0.6 -330.9,-0.6 -330.9,-0.6 l -411.4,2.4 c 0,0 2.7,99.1 123,120 120.2,21 321.4,105.5 394.3,264.4 76.6,167.2 311.1,-44.1 311.1,-44.1"
         style="fill:#20497a;fill-opacity:1;fill-rule:nonzero;stroke:none"
         id="path68" /><path
         d="m 22395.7,6005.7 c 0,0 -15.3,-1036.9 164.1,-2310 179.4,-1273.1 118.6,-1813.6 118.6,-1813.6 0,0 123.3,-39.9 173,-43.9 126.7,-10.4 256.7,29.7 256.7,29.7 0,0 256.8,1273.5 183.1,1910.8 -73.6,637.2 351.7,2186.6 351.7,2186.6 l -1247.2,40.4"
         style="fill:#f99746;fill-opacity:1;fill-rule:nonzero;stroke:none"
         id="path70" /><path
         d="m 23235.5,8509.9 -160.1,-206.5 -336.1,-18.2 c -1.8,27 -6.8,139.7 -11.1,241.9 -0.3,6 -0.5,12 -0.8,17.9 -3.6,86.9 -5,182.2 -5,182.2 l 266.4,184.9 100,76.6 c 0.1,-1.8 15.7,-93.9 15.7,-107.5 1.2,-265.3 131,-371.3 131,-371.3"
         style="fill:#ffb27d;fill-opacity:1;fill-rule:nonzero;stroke:none"
         id="path72" /><path
         d="m 22327.3,5960.8 c 4.7,-547.3 41.2,-1827.6 68,-1853.7 285.1,-275.1 1538.9,75.5 1605.4,378.6 66.4,303.2 -252.6,3886.9 -739.5,4030 -101,29.7 -641.2,-144.9 -641.2,-144.9 0,0 -84.7,-221.6 -140.3,-504 -20.6,-104.6 -87.8,-851.1 -127,-1349.9 -10.4,-132.9 -18.9,-248.3 -23.9,-329.1 -2,-33.5 -2.4,-114.9 -1.5,-227"
         style="fill:#8c9df4;fill-opacity:1;fill-rule:nonzero;stroke:none"
         id="path74" /><path
         d="m 23083,8871.5 c -38.8,-127.7 -261,-284 -354.8,-344.4 -0.3,6 -0.5,12 -0.8,17.9 -3.6,86.9 -6.6,262.5 -6.6,262.5 l 268,104.6 c 66.2,17.1 110.2,12 94.2,-40.6"
         style="fill:#fca56b;fill-opacity:1;fill-rule:nonzero;stroke:none"
         id="path76" /><path
         d="m 22632.8,8776.3 c 0,0 497.7,-155.2 589.7,156.2 91.9,311.5 218,501.2 -95.9,613.5 -313.9,112.3 -411,11.8 -467,-84.7 -55.9,-96.5 -153.9,-636.5 -26.8,-685"
         style="fill:#ffb27d;fill-opacity:1;fill-rule:nonzero;stroke:none"
         id="path78" /><path
         d="m 22679.2,9491.3 c 0,0 31.7,-362.4 106.7,-346.7 74.9,15.7 173.8,18.3 162.8,-90.9 -10.9,-109.3 92.4,-294.7 161.2,-294.3 231.8,1.5 487.1,625 423.7,737.8 -183.2,325.5 -1119.1,391.1 -854.4,-5.9"
         style="fill:#163560;fill-opacity:1;fill-rule:nonzero;stroke:none"
         id="path80" /><path
         d="m 22752.4,8507.8 c 6.4,2.7 370.5,166.1 413.1,152 42.6,-14 95.7,-144.1 95.7,-144.1 l -641.2,-145 c 0,0 50.5,102.6 132.4,137.1"
         style="fill:#6980e0;fill-opacity:1;fill-rule:nonzero;stroke:none"
         id="path82" /><path
         d="m 20393.5,6674.4 1872.1,-1988.2 c 36.1,-38.4 98.5,-39 138.5,-1.4 l 127.3,119.8 c 40,37.7 43.2,100 7,138.4 l -1875.7,1991.8 c -36.2,38.4 -67.6,8.2 -107.7,-29.4 l -127.3,-119.9 c -40,-37.6 -70.4,-72.7 -34.2,-111.1"
         style="fill:#1f4d84;fill-opacity:1;fill-rule:nonzero;stroke:none"
         id="path84" /><path
         d="m 21419.8,5585.2 843,-896.1 c 37.7,-40 101.3,-41.9 141.3,-4.3 l 127.3,119.8 c 40,37.7 42,101.2 4.3,141.3 l -843,896 -272.9,-256.7"
         style="fill:#ed7d2b;fill-opacity:1;fill-rule:nonzero;stroke:none"
         id="path86" /><path
         d="m 18396.1,9029 c 222.2,208.9 491.2,337 770.9,385.4 479.9,83.1 991,-68.9 1349.8,-450.1 567.8,-603.5 538.8,-1553 -64.7,-2120.7 -381.3,-358.7 -900.8,-479.2 -1374.8,-367.1 -276.1,65.5 -536.8,209.7 -745.8,431.8 -567.7,603.5 -538.7,1552.9 64.6,2120.7 m -137.2,-2188.9 c 605.4,-643.6 1618,-674.4 2261.5,-69 210.7,198.3 355.8,440 434.2,698.4 161.3,530.5 41.9,1130.3 -365.3,1563.1 -605.4,643.5 -1617.9,674.2 -2261.4,68.9 -8.4,-8.1 -16.9,-16.1 -25,-24.3 -619.2,-607.8 -641.5,-1602.1 -44,-2237.1"
         style="fill:#163560;fill-opacity:1;fill-rule:nonzero;stroke:none"
         id="path88" /><path
         d="m 20503.4,6894.3 c 0.2,263.2 -53.8,440.6 -53.8,440.6 299.5,1279.5 -232.8,1853.6 -232.8,1853.6 0.6,7 1.2,13.9 1.8,20.8 29.6,-18.5 58.6,-38.1 87.1,-58.8 74.7,-54.4 145.4,-116.5 211,-186.2 306.4,-325.7 439,-751.8 401.4,-1164.5 -29.9,-330 -168.8,-651.3 -414.7,-905.5"
         style="fill:#dae8fa;fill-opacity:1;fill-rule:nonzero;stroke:none"
         id="path90" /><path
         d="m 19424.5,6436.1 c -116.7,0 -233.3,13.5 -347.2,40.5 -67.8,16 -134.7,36.8 -200.1,62.4 -104.5,40.8 -205.3,93.8 -300.2,158.8 41.6,40.4 80.7,85 117.2,133.5 300.2,399.3 231.9,762.6 121.6,997 -1.3,2.7 -2.5,5.4 -3.8,8.1 -9.2,19 -17.5,27.1 -24.9,27.1 -29.8,0 -45.3,-130.9 -40.9,-215.1 11.7,-225.4 -165.9,-573.5 -387,-762.1 -1.2,-1 -2.4,-2 -3.6,-3 -8.1,8.3 -16.1,16.6 -24.1,25.1 -563.8,599.3 -539.1,1539.8 52.4,2108.9 4,3.9 8.1,7.8 12.2,11.7 187.4,176.2 408.2,294.9 640.6,356.8 0.2,0.1 0.4,0.1 0.6,0.2 0.4,0.1 0.7,0.2 1,0.3 42.6,11.2 85.5,20.6 128.7,28.1 85.1,14.7 171.1,22.1 257.1,22.1 24.2,0 48.3,-0.6 72.4,-1.8 252.2,-12.1 501.5,-87.5 722.1,-225.4 -0.6,-6.9 -1.2,-13.8 -1.8,-20.8 0,0 532.3,-574.1 232.8,-1853.6 0,0 54,-177.4 53.8,-440.6 -16.6,-17.2 -33.7,-34.1 -51.3,-50.6 -289.6,-272.6 -659,-407.6 -1027.6,-407.6 m -592,2130.8 c 62.7,0 126.6,-2.7 184.3,-10 182.9,-23.2 418.8,-86.9 508.6,-257.9 89.8,-194.9 281.7,-226.8 397.4,-226.8 56.1,0 94.3,7.5 94.3,7.5 -169.1,95.3 -270.7,218.6 -302,366.5 -33.5,157.9 16.4,321.9 64.2,431.7 52.7,121 114.6,204.5 115.2,205.3 0,0 -378.1,-134.2 -410.2,-441.5 -143,90.7 -281.2,123.4 -406.9,123.4 -323.1,0 -562.5,-216.4 -583.2,-218.8 v 0 0 c 0.9,0.1 165.1,20.6 338.3,20.6"
         style="fill:#e2997d;fill-opacity:1;fill-rule:nonzero;stroke:none"
         id="path92" /><path
         d="m 18577,6697.8 c -64.3,44.1 -125.9,93.7 -184,148.9 -12.6,11.9 -25.1,24.1 -37.4,36.6 1.2,1 2.4,2 3.6,3 221.1,188.6 398.7,536.7 387,762.1 -4.4,84.2 11.1,215.1 40.9,215.1 7.4,0 15.7,-8.1 24.9,-27.1 1.3,-2.7 2.5,-5.4 3.8,-8.1 110.3,-234.4 178.6,-597.7 -121.6,-997 -36.5,-48.5 -75.6,-93.1 -117.2,-133.5"
         style="fill:#d98d7d;fill-opacity:1;fill-rule:nonzero;stroke:none"
         id="path94" /><path
         d="m 19922.8,8072.2 c -115.7,0 -307.6,31.9 -397.4,226.8 -89.8,171 -325.7,234.7 -508.6,257.9 -57.7,7.3 -121.6,10 -184.3,10 -173.2,0 -337.4,-20.5 -338.3,-20.6 20.7,2.4 260.1,218.8 583.2,218.8 125.7,0 263.9,-32.7 406.9,-123.4 32.1,307.3 410.2,441.5 410.2,441.5 -0.6,-0.8 -62.5,-84.3 -115.2,-205.3 -47.8,-109.8 -97.7,-273.8 -64.2,-431.7 31.3,-147.9 132.9,-271.2 302,-366.5 0,0 -38.2,-7.5 -94.3,-7.5 m -1428.6,474.1 v 0 0"
         style="fill:#d98d7d;fill-opacity:1;fill-rule:nonzero;stroke:none"
         id="path96" /><path
         d="m 18877.2,6539 c -175.4,68.5 -340.3,171.2 -484.2,307.7 58.1,-55.2 119.7,-104.8 184,-148.9 94.9,-65 195.7,-118 300.2,-158.8 m -493.3,2478.3 c 4,3.9 8.1,7.8 12.2,11.7 156.4,147.1 336.1,254.1 526.3,321.5 37.7,13.4 75.8,25.1 114.3,35.3 -232.4,-61.9 -453.2,-180.6 -640.6,-356.8 -4.1,-3.9 -8.2,-7.8 -12.2,-11.7 m 1921.8,133.2 c -28.5,20.7 -57.5,40.3 -87.1,58.8 -220.6,137.9 -469.9,213.3 -722.1,225.4 286,-13.7 568.3,-108.9 809.2,-284.2 M 19037.3,9386 c 0.4,0.1 0.7,0.2 1,0.3 -0.3,-0.1 -0.6,-0.2 -1,-0.3"
         style="fill:#45648e;fill-opacity:1;fill-rule:nonzero;stroke:none"
         id="path98" /><path
         d="m 22327.3,5960.8 c 1189.6,805.6 1092.7,1913.7 1092.7,1913.7 -464.2,-261.9 -924.3,-881.8 -1067.3,-1357.6 -10.4,-132.9 -18.9,-248.3 -23.9,-329.1 -2,-33.5 -2.4,-114.9 -1.5,-227"
         style="fill:#6980e0;fill-opacity:1;fill-rule:nonzero;stroke:none"
         id="path100" /><path
         d="m 21278.8,6368.5 c -79.3,18.3 -132.6,78.3 -143.7,88.8 0,0 -33.8,-2.3 5.6,-74.5 3.3,-6 10.6,-21.5 16.1,-32.5 2.2,-4.5 -0.9,-9.7 -5.9,-10 -45.8,-3.5 -91.8,14.6 -179.9,-3.8 -12.2,-2.5 -15.7,-31.7 -15.3,-44.1 0.8,-21 -0.7,-44.6 23.7,-76.8 14.2,-18.8 53.9,-38.9 142.1,-74.4 33.7,-13.6 129.8,-3.4 219.9,27.6 l 72,33.3 -22.3,133.8 -18.1,-3.8 c -28.7,-6 -64.3,29.1 -94.2,36.4"
         style="fill:#ffb27d;fill-opacity:1;fill-rule:nonzero;stroke:none"
         id="path102" /><path
         d="m 23071,8370.7 c 0,0 1010.5,-192.4 -297.4,-1655.8 -209.1,-234.1 -1339.3,-538.8 -1339.3,-538.8 0,0 -114.6,97.5 -56.8,176.5 0,0 778.1,565 949.3,654.9 77,40.4 298.9,901.8 424.5,1109.3 125.6,207.5 319.7,253.9 319.7,253.9"
         style="fill:#8c9df4;fill-opacity:1;fill-rule:nonzero;stroke:none"
         id="path104" /><path
         d="m 21123.2,7824.9 c 0,0 -33,63.2 -39.5,96.5 -6.4,33.3 -48,130.5 -65.2,147.6 -6.9,6.8 -29.5,-2 -32.2,-31.5 -1.1,-12.8 5.2,-36.1 16.3,-63.9 18,-45.2 15.1,-106.5 21.4,-127 15.6,-50.9 99.2,-21.7 99.2,-21.7"
         style="fill:#ffb27d;fill-opacity:1;fill-rule:nonzero;stroke:none"
         id="path106" /><path
         d="m 15103.4,6376.2 c -68,218.5 -363.9,259.5 -483,64.1 -21.4,-35.2 -35,-75.6 -36.2,-121.9 -6.5,-256.2 498.8,-1247.9 565.8,-1335.6 122.1,-159.7 859.2,-543.7 859.2,-543.7 l 156.6,22.8 c 0,0 -88.6,55.6 -180.3,147.2 -189.3,189 -465.4,496.4 -515.9,538.9 -86.8,73.1 -237,813.3 -366.2,1228.2"
         style="fill:#ed985f;fill-opacity:1;fill-rule:nonzero;stroke:none"
         id="path108" /><path
         d="m 15317.4,7629.7 c 4,16.5 -357.6,-163.4 -375.9,-183.8 -169.6,-188.1 -121.2,-433.6 -24.2,-435.9 62.2,-1.5 50.2,-105 50.2,-105 l 693.3,293.3 c 0,0 -83.5,486.8 -343.4,431.4"
         style="fill:#233862;fill-opacity:1;fill-rule:nonzero;stroke:none"
         id="path110" /><path
         d="m 15402.7,7591.7 c 0,0 -231.7,238.9 -483.6,51.9 -218.4,-162.3 -28.8,-418 -302.6,-507.2 -136.4,-44.5 -359.1,-142.2 -275.8,-533.1 56.1,-263.2 884.6,-537 836,-758.2 0,0 282,441.1 74.5,657 -98.7,102.7 -223.3,361.1 -212.3,402.9 11.1,41.8 363.8,686.7 363.8,686.7"
         style="fill:#233862;fill-opacity:1;fill-rule:nonzero;stroke:none"
         id="path112" /><path
         d="m 14555.1,1751.7 -150.1,22 c 0,0 -504.4,400.9 -579.6,1149 -7.6,76.1 -9.2,153.4 -3.5,231.2 0.6,9 -0.4,18 -5.3,25.6 l -0.1,0.2 c -16.2,24.7 -56.4,86.7 -110.8,174.9 -53.6,86.9 -145.4,251.2 -246.4,435.5 -181.9,331.9 -393.7,728.9 -466.3,855.4 -231.5,402.9 -119.9,673.9 -119.9,673.9 0,0 645.7,63.9 822.6,218.6 l 63.8,-98.2 c 0,0 139.9,-619.3 133.2,-622.2 6.9,-21.1 13.9,-42.5 21,-64.3 110.5,-340.8 237.4,-766.7 306.7,-1113.6 38.9,-195.2 59.5,-365.2 48.4,-481.1 -3.8,-39.7 0.9,-100.8 11.4,-176.2 62.5,-444.5 274.9,-1230.7 274.9,-1230.7"
         style="fill:#2b478b;fill-opacity:1;fill-rule:nonzero;stroke:none"
         id="path114" /><path
         d="m 14869.8,1561.8 h -626 c 0,0 -15,95.4 17.7,167.8 31.4,69.5 76,71.7 5.7,180.5 39.8,-40.9 167.7,-57.9 258.2,-45.7 11.1,-18 71.4,-138.6 108.5,-165.2 40.9,-29.4 223.3,-18.9 235.9,-137.4"
         style="fill:#2b4570;fill-opacity:1;fill-rule:nonzero;stroke:none"
         id="path116" /><path
         d="m 13913.7,4753.3 c -54.6,-301.6 -183.8,-803.5 -454.4,-963.2 -181.9,331.9 -393.7,728.9 -466.3,855.4 -231.5,402.9 -119.9,673.9 -119.9,673.9 0,0 645.7,63.9 822.6,218.6 l 63.8,-98.2 c 0,0 139.9,-619.3 133.2,-622.2 6.9,-21.1 13.9,-42.5 21,-64.3"
         style="fill:#233862;fill-opacity:1;fill-rule:nonzero;stroke:none"
         id="path118" /><path
         d="m 13474.7,5272.9 2.2,117 c -233.3,-29.4 -804.3,278.8 -804.3,278.8 0,0 -244,-162.3 -277.4,-625.8 -16.3,-226.3 -119.5,-1183.1 -130.9,-1468.8 -4.2,-103.5 -5.5,-177.4 -6,-206.9 v -0.3 c -0.1,-9 -4.4,-17 -9.9,-24.1 -48.3,-61.4 -90.1,-126.4 -126.4,-193.8 -355.9,-662.2 -169.8,-1562 -169.8,-1562 l 82.7,21 c 0,0 300.9,932.8 497.6,1336.3 33.4,68.4 63.7,121.7 89.1,152.5 74,89.8 151.9,242.4 228.8,425.9 145.3,347.1 286.4,805.1 387,1159.8 7.1,-1.3 237.3,590.4 237.3,590.4"
         style="fill:#2b478b;fill-opacity:1;fill-rule:nonzero;stroke:none"
         id="path120" /><path
         d="m 15245,6735.4 v -0.1 h -0.1 l -0.3,-0.6 -0.2,-0.3 -0.8,-1.2 -0.2,-0.3 c -3.2,-5.3 -11.7,-18.5 -24.2,-36.7 -1.1,-1.6 -2.3,-3.3 -3.4,-5.1 -19.8,-28.6 -48.3,-67.7 -81.4,-106.7 -44.9,-52.9 -98.4,-105.8 -150.3,-132.1 v -0.1 c -15.7,12.8 -301.6,254.4 -280.7,245.6 52.8,10.7 215.2,91.1 319.3,222.3 48.4,61 222.3,-184.7 222.3,-184.7"
         style="fill:#ffb27d;fill-opacity:1;fill-rule:nonzero;stroke:none"
         id="path122" /><path
         d="m 15080.5,6452.2 c 0,0 67,-132.3 102.8,-246.9 35.8,-114.6 125.3,-479.1 125.3,-479.1 0,0 -184.6,-210.6 -441.4,-198.3 0,0 -138,216.1 -89.4,411.3 48.7,195.1 302.7,513 302.7,513"
         style="fill:#6980e0;fill-opacity:1;fill-rule:nonzero;stroke:none"
         id="path124" /><path
         d="m 15245,6735.3 -0.4,-0.6 -0.2,-0.3 -0.8,-1.2 -0.2,-0.3 c -3.5,-5.1 -12.4,-18.3 -24.2,-36.7 -1.1,-1.6 -2.3,-3.3 -3.4,-5.1 -19.8,-28.6 -48.3,-67.7 -81.4,-106.7 -134.7,91.9 -134.5,265.3 -123.6,356.2 l 234.1,-205.3 h 0.1"
         style="fill:#ed985f;fill-opacity:1;fill-rule:nonzero;stroke:none"
         id="path126" /><path
         d="m 15251.5,6632.4 c 0,0 -353.6,196.8 -227.7,415.1 126,218.3 165.1,390.7 396.2,274.3 231,-116.4 226.5,-224.8 202.1,-307.9 -24.2,-83 -275.4,-427 -370.6,-381.5"
         style="fill:#ffb27d;fill-opacity:1;fill-rule:nonzero;stroke:none"
         id="path128" /><path
         d="m 15681.9,7141.3 c -16.2,96.9 -65.5,106.1 -99.8,99.7 -130.5,215.9 -343.9,131.6 -343.9,131.6 -113.9,-143 -278.6,-167.4 -278.6,-167.4 0,0 41,-76.3 210,-123.5 51.7,-14.5 110.3,-5.7 166.8,13.3 -117.3,-65.4 -239.9,-90.5 -239.9,-90.5 222.7,-20.3 434.7,183.3 456.7,205.1 10.3,-31.6 28.3,-97.6 17.5,-145.9 -14.7,-65.7 -72.9,-184.6 -37.4,-200 0,0 172.9,132.2 148.6,277.6"
         style="fill:#233862;fill-opacity:1;fill-rule:nonzero;stroke:none"
         id="path130" /><path
         d="m 12450,1561.8 h -626 c 0,0 -15,95.4 17.7,167.8 31.3,69.5 80.4,101 68.7,185.1 39.7,-41 104.6,-86.9 195.1,-74.7 11.1,-18 71.5,-114.2 108.6,-140.8 40.9,-29.4 223.3,-18.9 235.9,-137.4"
         style="fill:#2b4570;fill-opacity:1;fill-rule:nonzero;stroke:none"
         id="path132" /><path
         d="m 14884.6,5629.4 c -80.5,-28.1 -193.6,-43.5 -309.2,-56.1 -164.6,-17.9 -334.5,-30.2 -423.5,-65.7 -17.4,-6.9 -68.1,-28.1 -118.8,-64.8 v -0.1 c 0,0 -1.2,-0.8 -3.5,-2.7 -16.8,-12.2 -33.6,-26.4 -49.1,-42.3 -23.6,-24.3 -44.2,-52.7 -57.4,-85.2 -32.6,-80.7 10.6,-304.3 38.3,-426.5 11.2,-49.2 -12,-100 -56.8,-123.2 -62.6,-32.4 -124.1,-62.3 -184.6,-89.6 -3.2,-1.5 -6.3,-2.8 -9.5,-4.3 0.6,12.4 0.8,24.8 0.8,36.8 0.1,84.4 -10.6,154.5 -10.6,154.5 -14.9,-85.1 -70.9,-177 -123.2,-247.8 -840,-337 -1426.9,-190.5 -1417.3,-22.6 33.1,583 426.3,1078.9 426.3,1078.9 733.2,852.6 2216.4,1077.1 2216.4,1077.1 0,0 71,8.5 156.7,-94.5 123.3,-148.3 129.5,-187 129.5,-187 0,0 32.5,-752.2 -204.5,-834.9"
         style="fill:#8c9df4;fill-opacity:1;fill-rule:nonzero;stroke:none"
         id="path134" /><path
         d="m 14575.4,5573.4 c -164.6,-18 -334.6,-30.3 -423.6,-65.8 -36.4,543.6 220.2,952.5 220.2,952.5 0,0 167.3,-681 203.4,-886.7"
         style="fill:#6980e0;fill-opacity:1;fill-rule:nonzero;stroke:none"
         id="path136" /><path
         d="m 13961.4,4886 c 11.2,-49.2 -12,-100 -56.8,-123.2 -62.6,-32.4 -124.1,-62.3 -184.6,-89.6 -3.2,10.3 -6.1,21.1 -8.7,32.5 -9.5,42.6 -13.9,93.5 -10.6,154.5 14,258.1 189.8,453.5 279.8,537.5 -23.6,-24.3 -44.2,-52.7 -57.4,-85.2 -32.6,-80.7 10.6,-304.3 38.3,-426.5"
         style="fill:#6980e0;fill-opacity:1;fill-rule:nonzero;stroke:none"
         id="path138" /><path
         d="m 14802.9,6745.8 c 0,0 64.6,81.6 108.2,79 0,0 176.5,-247.1 178,-360.5 0,0 -220.2,293 -286.2,281.5"
         style="fill:#6980e0;fill-opacity:1;fill-rule:nonzero;stroke:none"
         id="path140" /><path
         d="m 16496.3,4354.6 c 0,0 -93.8,-1.7 -114.1,1.2 -19.9,2.9 -46.5,11.5 -73.2,12.5 -26.3,0.9 -50.4,-7.6 -75.1,-12.7 -3.7,-0.7 -7.4,-1 -11.2,-1 h -155.6 c 0,0 -15.7,7.4 -32.8,34.9 -7.3,11.9 -8.3,40.2 -25.1,49.6 -94.3,52.6 156.6,22.8 156.6,22.8 0,0 157.5,2.9 172,-8 25.9,-19.4 164.4,-91.9 158.5,-99.3"
         style="fill:#ed985f;fill-opacity:1;fill-rule:nonzero;stroke:none"
         id="path142" /><path
         d="m 16067.1,4354.5 c 0,0 95.5,-27.6 121.5,-45.3 l 27.4,-17.3 c 0,0 15.9,17.7 -9.1,37.4 -13.2,10.4 -49.6,40.7 -50.8,75.5 -1.1,34.9 -109,4.4 -89,-50.3"
         style="fill:#ed985f;fill-opacity:1;fill-rule:nonzero;stroke:none"
         id="path144" /><path
         d="m 17552.3,1703.2 v 0 c -225,0 -407.4,182.4 -407.4,407.4 v 2573.3 h 814.9 V 2110.6 c 0,-225 -182.4,-407.4 -407.5,-407.4"
         style="fill:#c7d8ff;fill-opacity:1;fill-rule:nonzero;stroke:none"
         id="path146" /><path
         d="m 17552.3,1821.3 v 0 c -167.2,0 -302.7,135.6 -302.7,302.8 v 915.3 h 605.5 v -915.3 c 0,-167.2 -135.6,-302.8 -302.8,-302.8"
         style="fill:#d14842;fill-opacity:1;fill-rule:nonzero;stroke:none"
         id="path148" /><path
         d="m 18768.9,1703.2 v 0 c -225,0 -407.4,182.4 -407.4,407.4 v 2573.3 h 814.9 V 2110.6 c 0,-225 -182.4,-407.4 -407.5,-407.4"
         style="fill:#c7d8ff;fill-opacity:1;fill-rule:nonzero;stroke:none"
         id="path150" /><path
         d="m 18768.9,1821.3 v 0 c -167.2,0 -302.7,135.6 -302.7,302.8 v 1169.2 h 605.5 V 2124.1 c 0,-167.2 -135.6,-302.8 -302.8,-302.8"
         style="fill:#d14842;fill-opacity:1;fill-rule:nonzero;stroke:none"
         id="path152" /><path
         d="m 15727.1,3599.2 v 0 c -207.4,87.5 -304.5,326.5 -217,533.8 l 1000.6,2370.8 750.7,-316.8 -1000.5,-2370.8 c -87.5,-207.4 -326.5,-304.5 -533.8,-217"
         style="fill:#c7d8ff;fill-opacity:1;fill-rule:nonzero;stroke:none"
         id="path154" /><path
         d="m 15801.7,3696 -57.4,24.2 c -138.2,58.3 -202.9,217.6 -144.6,355.8 l 721.8,1710.4 650.6,-15.7 -814.6,-1930.1 c -58.3,-138.2 -217.6,-203 -355.8,-144.6"
         style="fill:#d14842;fill-opacity:1;fill-rule:nonzero;stroke:none"
         id="path156" /><path
         d="m 15650.5,4074.4 c 0,0 68.3,-60.7 120.2,-73.5 51.9,-12.8 111,-161.5 120.4,-182.8 9.5,-21.2 -49.6,9.5 -73.2,45.7 -23.6,36.2 -39.7,50.3 -46.6,42.5 -6.9,-7.9 4.1,-107.1 43.5,-162.2 39.3,-55 62.9,-103.8 34.6,-100.7 -28.3,3.2 -196.8,44.1 -231.4,146.4 -34.6,102.3 -9.2,105.9 -88.8,211.1 -79.6,105.3 121.3,73.5 121.3,73.5"
         style="fill:#ffb27d;fill-opacity:1;fill-rule:nonzero;stroke:none"
         id="path158" /><path
         d="m 14748.2,6565.3 c 0,0 -412.5,-40.8 -445.6,-308.8 -33,-268.1 395.5,-1359.8 456.9,-1458.7 111.7,-180 769.7,-796.9 769.7,-796.9 l 121.3,73.5 c 0,0 -466.7,790.1 -539,864 -113.4,116.1 -223.6,1534 -363.3,1626.9"
         style="fill:#ffb27d;fill-opacity:1;fill-rule:nonzero;stroke:none"
         id="path160" /><path
         d="m 14959.6,6053.2 c 0,0 42.3,691.1 -486.6,524 -529,-167.1 82.1,-1355.8 82.1,-1355.8 0,0 310.4,15.3 420.5,286.2 l -16,545.6"
         style="fill:#8c9df4;fill-opacity:1;fill-rule:nonzero;stroke:none"
         id="path162" /><path
         d="m 19514.5,1921.5 h -3698.1 v 133.2 h 3698.1 v -133.2"
         style="fill:#94b0ed;fill-opacity:1;fill-rule:nonzero;stroke:none"
         id="path164" /><path
         d="m 15989.5,1954.3 h -173.1 v -427.9 h 173.1 v 427.9"
         style="fill:#94b0ed;fill-opacity:1;fill-rule:nonzero;stroke:none"
         id="path166" /><path
         d="m 19514.5,2054.7 h -197.3 v -528.3 h 197.3 v 528.3"
         style="fill:#94b0ed;fill-opacity:1;fill-rule:nonzero;stroke:none"
         id="path168" /><path
         d="m 17950.4,4658.2 h -817.3 c -19.8,0 -36.1,16.3 -36.1,36.1 0,19.9 16.3,36.2 36.1,36.2 h 817.3 c 19.8,0 36.1,-16.3 36.1,-36.2 0,-19.8 -16.3,-36.1 -36.1,-36.1"
         style="fill:#abc1ef;fill-opacity:1;fill-rule:nonzero;stroke:none"
         id="path170" /><path
         d="m 19177.5,4658.2 h -817.2 c -19.9,0 -36.1,16.3 -36.1,36.1 0,19.9 16.2,36.2 36.1,36.2 h 817.2 c 19.9,0 36.2,-16.3 36.2,-36.2 0,-19.8 -16.3,-36.1 -36.2,-36.1"
         style="fill:#abc1ef;fill-opacity:1;fill-rule:nonzero;stroke:none"
         id="path172" /><path
         d="m 17245.6,6171.3 -767.8,279.7 c -18.7,6.8 -28.4,27.6 -21.6,46.3 6.8,18.7 27.6,28.4 46.3,21.6 l 767.9,-279.7 c 18.6,-6.8 28.4,-27.7 21.6,-46.4 -6.8,-18.6 -27.7,-28.3 -46.4,-21.5"
         style="fill:#abc1ef;fill-opacity:1;fill-rule:nonzero;stroke:none"
         id="path174" /><path
         d="m 9088.19,1610.7 c -9.05,-24.3 -734.58,-51.7 -737.99,25.2 -0.11,1.2 -0.11,2.5 -0.11,3.9 0,2 0.06,4.1 0.15,6.5 0.13,8 0.63,15.9 1.66,23.8 l 0.11,0.5 c 2,15.1 5.32,30.1 8.64,44.8 4.43,19.4 13.58,41.8 22.73,65.2 13.18,34 26.36,70.3 24.64,103.1 -5.23,105.6 -43.24,327.8 -43.24,327.8 l 208.78,23.2 c 0,0 32.99,-306.6 72.62,-375.3 53.7,-93.3 147.54,-144.6 246.6,-172.8 11.17,-3.2 22.23,-6.4 33.29,-9.4 87.9,-24.1 170.17,-44.9 162.12,-66.5"
         style="fill:#f4a36c;fill-opacity:1;fill-rule:nonzero;stroke:none"
         id="path176" /><path
         d="m 9095.23,1609.8 c -9.05,-24.3 -77.04,-78.5 -248.81,-71.1 -171.88,7.5 -138.29,37.6 -261.49,27 -123.2,-10.7 -231.32,-6.7 -234.73,70.2 -0.11,1.2 -0.11,2.5 -0.11,3.9 0,7.4 0.71,18 1.81,30.3 l 0.11,0.5 c 2,15.1 5.32,30.1 8.64,44.8 4.43,19.4 13.58,41.8 22.73,65.2 77.85,-20.6 181.14,-113 288.95,-127 141.1,-18.4 252.64,22.1 252.64,22.1 l 1.1,1.5 c 104.7,-18.9 177.31,-45.7 169.16,-67.4"
         style="fill:#0f2549;fill-opacity:1;fill-rule:nonzero;stroke:none"
         id="path178" /><path
         d="m 9193.89,4777.9 v 0 c -65.4,0 -118.42,53.1 -118.42,118.5 v 747.9 h 236.84 v -747.9 c 0,-65.4 -53.01,-118.5 -118.42,-118.5"
         style="fill:#cde3fd;fill-opacity:1;fill-rule:nonzero;stroke:none"
         id="path180" /><path
         d="m 9193.89,4812.3 v 0 c -48.59,0 -87.99,39.4 -87.99,88 v 266 h 175.98 v -266 c 0,-48.6 -39.39,-88 -87.99,-88"
         style="fill:#94b7ea;fill-opacity:1;fill-rule:nonzero;stroke:none"
         id="path182" /><path
         d="m 9547.48,4777.9 v 0 c -65.4,0 -118.42,53.1 -118.42,118.5 v 747.9 h 236.84 v -747.9 c 0,-65.4 -53.01,-118.5 -118.42,-118.5"
         style="fill:#cde3fd;fill-opacity:1;fill-rule:nonzero;stroke:none"
         id="path184" /><path
         d="m 9547.48,4812.3 v 0 c -48.59,0 -87.99,39.4 -87.99,88 v 339.8 h 175.98 v -339.8 c 0,-48.6 -39.4,-88 -87.99,-88"
         style="fill:#94b7ea;fill-opacity:1;fill-rule:nonzero;stroke:none"
         id="path186" /><path
         d="m 8873.96,4777.9 v 0 c -65.41,0 -118.42,53.1 -118.42,118.5 v 747.9 h 236.84 v -747.9 c 0,-65.4 -53.01,-118.5 -118.42,-118.5"
         style="fill:#cde3fd;fill-opacity:1;fill-rule:nonzero;stroke:none"
         id="path188" /><path
         d="m 8873.96,4812.3 v 0 c -48.59,0 -87.99,39.4 -87.99,88 v 339.8 h 175.98 v -339.8 c 0,-48.6 -39.4,-88 -87.99,-88"
         style="fill:#94b7ea;fill-opacity:1;fill-rule:nonzero;stroke:none"
         id="path190" /><path
         d="m 8674.54,4704.9 h -66.6 v 197.8 h 66.6 v -197.8"
         style="fill:#77a4e5;fill-opacity:1;fill-rule:nonzero;stroke:none"
         id="path192" /><path
         d="m 9813.5,4704.9 h -66.6 v 197.8 h 66.6 v -197.8"
         style="fill:#77a4e5;fill-opacity:1;fill-rule:nonzero;stroke:none"
         id="path194" /><path
         d="M 9813.5,4844.9 H 8607.94 v 57.8 H 9813.5 v -57.8"
         style="fill:#77a4e5;fill-opacity:1;fill-rule:nonzero;stroke:none"
         id="path196" /><path
         d="m 7047.79,7404.8 c 0,0 -130.47,71.4 -277.18,26.3 -296.4,-91.1 -153.56,-334.6 -303.72,-432.2 -150.15,-97.6 -287.49,-396 -192.77,-548.7 94.7,-152.8 233.46,-282.9 317.59,-178.7 84.14,104.2 168.6,248.6 169.33,445.9 0.66,178.1 72.2,540.3 194.72,512.5 122.53,-27.8 92.03,174.9 92.03,174.9"
         style="fill:#233862;fill-opacity:1;fill-rule:nonzero;stroke:none"
         id="path198" /><path
         d="m 7486.89,7141.8 c 0,0 -143.01,319.3 -439.1,263 -296.08,-56.3 -336.83,-611.5 -141.69,-683.1 135.76,-49.7 580.79,420.1 580.79,420.1"
         style="fill:#233862;fill-opacity:1;fill-rule:nonzero;stroke:none"
         id="path200" /><path
         d="m 7354.26,1532.6 c -13.7,0 -25.6,8.4 -29.79,20.3 24.59,0 48.71,0 73.5,0 -8.61,-11.9 -23.01,-19.9 -39.6,-20.2 l -3.49,-0.1 c -0.2,0 -0.41,0 -0.62,0 m -1830.25,0 c -0.21,0 -0.41,0 -0.62,0 l -3.49,0.1 c -16.32,0.3 -30.52,8 -39.17,19.6 24.15,0 48.26,0.1 72.88,0.1 -4.36,-11.7 -16.11,-19.8 -29.6,-19.8"
         style="fill:#c9d7f6;fill-opacity:1;fill-rule:nonzero;stroke:none"
         id="path202" /><path
         d="m 5480.73,1552.3 c -6.46,8.7 -9.82,19.5 -8.67,31 l -229.65,3843.2 c -42.77,222.8 138.83,426.7 377.04,426.7 3.17,0 6.37,0 9.56,-0.1 l 855.4,-14.9 c 224.62,-5.1 419.92,-155.4 482.35,-371.3 l 493.96,-1707.7 h 789.57 23.93 c 38.6,0 70.18,-31.6 70.18,-70.2 v -23.9 -115.9 -23.9 c 0,-38.6 -31.58,-70.2 -70.18,-70.2 h -23.93 -1031.5 l 187.43,-1871.8 c 1.12,-11.2 -2.07,-21.8 -8.25,-30.4 -24.79,0 -48.91,0 -73.5,0 -0.61,1.7 -1.05,3.5 -1.32,5.4 l -271.26,1896.8 h -1463 l -33.77,-1896.8 c -0.29,-2.1 -0.81,-4.1 -1.51,-5.9 -24.62,0 -48.73,-0.1 -72.88,-0.1"
         style="fill:#bfd1f3;fill-opacity:1;fill-rule:nonzero;stroke:none"
         id="path204" /><path
         d="m 6533.33,5472.2 273.64,-692.4 c 0,0 263.66,-310.7 475.58,-210.6 l -670.57,1302.2 -78.65,-399.2"
         style="fill:#abddda;fill-opacity:1;fill-rule:nonzero;stroke:none"
         id="path206" /><path
         d="m 8553.62,4073.6 c -198.74,197.6 -1433.1,719.6 -1849.88,764.3 l -476.38,174.2 c 0,0 -194.14,-465 -197.24,-909.4 -1.45,-207.1 254.21,-343.5 60.79,-343.5 0,0 1686.09,6.7 1750.83,0 105.96,-10.9 46.31,-260.6 81.24,-501 34.93,-240.5 476.04,-1250.2 476.04,-1250.2 0,0 128.43,-41.1 187.82,-37.7 63.87,3.8 93.43,25.2 93.43,25.2 0,0 114.63,1838.3 -126.65,2078.1"
         style="fill:#233862;fill-opacity:1;fill-rule:nonzero;stroke:none"
         id="path208" /><path
         d="m 7998.73,1612.3 c 3.38,-76.9 728.98,-49.5 738.02,-25.2 8.06,21.6 -74.2,42.3 -162.14,66.5 -11.07,3 -22.16,6.2 -33.26,9.3 -99.12,28.3 -192.88,79.6 -246.59,172.8 -39.63,68.8 -72.69,375.3 -72.69,375.3 l -208.8,-23.2 c 0,0 38.11,-222.2 43.33,-327.8 2.74,-55.3 -36.48,-120.5 -47.39,-168.2 -5.85,-25.9 -11.71,-52.5 -10.48,-79.5"
         style="fill:#ffb27d;fill-opacity:1;fill-rule:nonzero;stroke:none"
         id="path210" /><path
         d="m 8233.47,1542.1 c 123.19,10.6 89.65,-19.5 261.48,-27 171.83,-7.4 239.83,46.8 248.86,71.1 8.07,21.6 -64.49,48.4 -169.2,67.4 l -1.1,-1.6 c 0,0 -112.44,-56.1 -253.58,-37.8 -115.05,15 -231.37,66.6 -310.72,77.6 -5.85,-25.9 -11.71,-52.5 -10.48,-79.5 3.38,-76.9 111.55,-80.9 234.74,-70.2"
         style="fill:#304f7f;fill-opacity:1;fill-rule:nonzero;stroke:none"
         id="path212" /><path
         d="m 8262.76,4070.9 c -116.75,122 -890.35,372.2 -1282.65,500 -94.48,30.8 -1012.94,486 -1012.94,486 0,0 -145.18,-1297.6 29.98,-1299.3 328.17,-3.3 1598.84,-61.1 1648.57,-64.7 150.42,-10.8 71.38,-359 130.93,-635 60.89,-282.4 237.02,-1049.9 237.02,-1049.9 0,0 128.42,-41.1 187.81,-37.7 63.87,3.8 93.44,25.2 93.44,25.2 0,0 203.04,1829.6 -32.16,2075.4"
         style="fill:#2b478b;fill-opacity:1;fill-rule:nonzero;stroke:none"
         id="path214" /><path
         d="m 7191.7,6662.4 c 0,0 -7.45,-52.4 -19.36,-117.4 -7.1,-38.9 -15.8,-82.4 -25.42,-121.7 -7.9,-32.4 -16.38,-62 -25.2,-83.8 -31.26,-77.4 -55.89,-152.9 -41.46,-168.3 1.15,-1.1 -164,-17.5 -255.62,51.7 -86.24,65 -122.08,239.9 -120.6,240.1 46.71,8.6 101.24,18.8 196.99,261.2 l 17.06,-11 273.61,-50.8"
         style="fill:#ffb27d;fill-opacity:1;fill-rule:nonzero;stroke:none"
         id="path216" /><path
         d="m 7172.34,6545 c -7.1,-38.9 -15.8,-82.4 -25.42,-121.7 -156.33,102.6 -212.2,194 -243.93,278.7 l 269.35,-157"
         style="fill:#ed975d;fill-opacity:1;fill-rule:nonzero;stroke:none"
         id="path218" /><path
         d="m 7246.84,6505.7 c 0,0 -407.09,68.4 -360.57,321.3 46.52,252.8 25.31,432 287.19,399 261.88,-33 294.48,-138.8 299.48,-227 5,-88.1 -119.01,-504.6 -226.1,-493.3"
         style="fill:#ffb27d;fill-opacity:1;fill-rule:nonzero;stroke:none"
         id="path220" /><path
         d="m 7462.66,7138.8 c 0,0 -269.24,-216.9 -447.88,-229.2 -178.66,-12.2 -195.91,70.3 -195.91,70.3 0,0 59.58,60.5 127.39,199 19.99,40.9 60.25,68 105.65,70.4 127.5,6.8 368.68,3.8 410.75,-110.5"
         style="fill:#233862;fill-opacity:1;fill-rule:nonzero;stroke:none"
         id="path222" /><path
         d="m 7299.7,7164.5 c 0,0 84.76,-87.6 110.26,-151.3 24.61,-61.5 27.78,-206.7 4.68,-263.6 0,0 145.23,260.8 72.25,392.2 -77.37,139.4 -187.19,22.7 -187.19,22.7"
         style="fill:#233862;fill-opacity:1;fill-rule:nonzero;stroke:none"
         id="path224" /><path
         d="m 7378.36,6013.4 c 0.39,171 -254.3,332.1 -254.3,332.1 0,0 -61.83,-169.8 -362.09,142 -10.63,11 -708.57,-450.1 -708.57,-450.1 0,0 -116.99,-597.8 -142.71,-871.1 -77.46,-823 20.25,-1473.4 20.25,-1473.4 0,0 1007.48,-179.4 1672.75,864 0,0 -235.18,538.4 -235.18,688.3 0,96.9 9.68,691.7 9.85,768.2"
         style="fill:#8c9df4;fill-opacity:1;fill-rule:nonzero;stroke:none"
         id="path226" /><path
         d="m 6030.12,4978.8 c 0,0 284.62,-380.2 1104.3,-313.6 l -381.81,361.6 -722.49,-48"
         style="fill:#6980e0;fill-opacity:1;fill-rule:nonzero;stroke:none"
         id="path228" /><path
         d="m 7059.79,5083.3 -92.74,-119.7 c -32.03,-5.4 -335.13,126.8 -480.63,184.2 -200.21,79 -105.91,578.4 -42.5,409.3 84.44,-225.2 365.66,-346.8 615.87,-473.8"
         style="fill:#6980e0;fill-opacity:1;fill-rule:nonzero;stroke:none"
         id="path230" /><path
         d="m 7906.12,5429.5 257.9,118.8 -431.59,936.8 -257.9,-118.8 431.59,-936.8"
         style="fill:#314387;fill-opacity:1;fill-rule:nonzero;stroke:none"
         id="path232" /><path
         d="m 7693.54,6093.2 123.23,56.8 -206.22,447.6 -123.23,-56.8 206.22,-447.6"
         style="fill:#314387;fill-opacity:1;fill-rule:nonzero;stroke:none"
         id="path234" /><path
         d="m 6999.88,4854.2 225.34,34.7 c -0.63,4.2 -63.11,425.4 46.18,754.2 109.74,330.2 483.24,391 487.01,391.5 l -34.48,225.4 c -20.99,-3.2 -515.65,-83.9 -668.88,-544.9 -126.96,-382 -58.16,-841.6 -55.17,-860.9"
         style="fill:#314387;fill-opacity:1;fill-rule:nonzero;stroke:none"
         id="path236" /><path
         d="m 6647.04,4689.1 h 974.76 v 55.2 c 0,112.7 -91.4,204.1 -204.15,204.1 h -525.12 c -135.58,0 -245.49,-109.9 -245.49,-245.5 v -13.8"
         style="fill:#314387;fill-opacity:1;fill-rule:nonzero;stroke:none"
         id="path238" /><path
         d="m 7134.42,5169.2 h 1054.84 v 76 H 7134.42 v -76"
         style="fill:#314387;fill-opacity:1;fill-rule:nonzero;stroke:none"
         id="path240" /><path
         d="m 7457.73,4689.1 h 731.53 v 129.7 h -731.53 v -129.7"
         style="fill:#314387;fill-opacity:1;fill-rule:nonzero;stroke:none"
         id="path242" /><path
         d="m 7742.74,4818.8 h 231.18 v 52.7 h -231.18 v -52.7"
         style="fill:#314387;fill-opacity:1;fill-rule:nonzero;stroke:none"
         id="path244" /><path
         d="m 7465.85,4917.8 c 0,0 56.49,-72.9 75.01,-81.6 18.52,-8.7 30.49,-6.5 30.49,-6.5 l -38.07,68.5 -67.43,19.6"
         style="fill:#ffb27d;fill-opacity:1;fill-rule:nonzero;stroke:none"
         id="path246" /><path
         d="m 7452.8,4992.9 164.25,-79.8 c 0,0 -6.99,-11.4 -27.22,-10.5 -20.22,0.9 -71.23,19.6 -71.23,19.6 l -65.8,70.7"
         style="fill:#ffb27d;fill-opacity:1;fill-rule:nonzero;stroke:none"
         id="path248" /><path
         d="m 7139.68,4956.7 c 0,0 269.62,60.1 313.12,36.2 43.5,-24 149.82,-111.1 163.14,-141.4 13.31,-30.3 -96.86,23 -132.69,32.6 -23.2,6.2 -84.29,-15 -114.52,-25.1 -127.25,-42.4 -205.22,-20.6 -205.22,-20.6 l -23.83,118.3"
         style="fill:#ffb27d;fill-opacity:1;fill-rule:nonzero;stroke:none"
         id="path250" /><path
         d="M 10066.5,4598.6 H 6248.3 v 107.8 h 3818.2 v -107.8"
         style="fill:#2557a0;fill-opacity:1;fill-rule:nonzero;stroke:none"
         id="path252" /><path
         d="m 10050,1475.3 c -7.9,11.2 -24.3,34.5 -127.44,1599.2 -50.79,770.6 -98.07,1545.3 -98.54,1553.1 l 40.36,2.4 c 51.48,-844.5 191.42,-3053.8 220.22,-3134.3 0,0.1 -0.5,1.3 -1.6,2.8 l -33,-23.2"
         style="fill:#2557a0;fill-opacity:1;fill-rule:nonzero;stroke:none"
         id="path254" /><path
         d="m 6215.5,1492.3 -33.05,23.3 c -1.1,-1.6 -1.53,-2.8 -1.55,-2.8 28.91,80.1 173.9,2277.4 227.33,3117.3 l 40.34,-2.6 c -0.49,-7.7 -49.55,-778.1 -102.09,-1544.6 C 6239.81,1526.8 6223.39,1503.5 6215.5,1492.3"
         style="fill:#2557a0;fill-opacity:1;fill-rule:nonzero;stroke:none"
         id="path256" /><path
         d="m 6761.97,6487.5 c 0,0 -411.46,0 -547.95,-136.6 -214.01,-214.2 -377.35,-1150.8 -221.07,-1338.8 175.99,-211.8 1176.29,-222.9 1176.29,-222.9 0,0 24,43.6 -29.56,167.5 -11.24,26.1 -653.27,284.2 -672.74,318.5 -19.47,34.2 -36.95,516.6 -14.78,597.2 22.17,80.5 309.81,615.1 309.81,615.1"
         style="fill:#8c9df4;fill-opacity:1;fill-rule:nonzero;stroke:none"
         id="path258" /><path
         d="m 16951.1,12627.9 c 16.6,-18.9 18.7,-40.1 10.5,-62.8 l -0.2,-0.3 c -15.1,-41.8 -65.2,-88.6 -123.3,-135.3 -7.4,-6 -14,-11.4 -19.8,-16.5 -1.5,-1.3 -3,-2.6 -4.4,-4 -1.2,-1 -2.3,-2.1 -3.5,-3 -54.2,-50 -33.8,-61.5 -131.2,-162.9 -111,-115.5 -187.5,-117.6 -209.3,-107.1 -18.4,9 19,70.3 60.5,139.2 2,3.3 3.9,6.6 6,10 5.5,9.2 11,18.5 16.5,27.7 48.5,82.9 36.1,121.8 24.6,245.1 -9.4,100.3 -156,560.1 -156,560.1 l 212.8,36.7 c 0,0 64.1,-366.2 134.7,-422.6 37.8,-30 80,-30.4 116.3,-52.7 2.6,-1.5 5.1,-3.1 7.6,-4.7 20.6,-13.7 41.6,-27.8 58.2,-46.9"
         style="fill:#ffb27d;fill-opacity:1;fill-rule:nonzero;stroke:none"
         id="path260" /><path
         d="m 16951.1,12627.9 c 16.6,-18.9 18.7,-40.1 10.5,-62.8 l -0.2,-0.3 c -18.5,-41.8 -67.3,-88.3 -123.5,-134.8 -7.4,-6.1 -13.8,-11.7 -19.6,-17 -1.5,-1.3 -3,-2.6 -4.4,-4 -1.2,-1 -2.3,-2.1 -3.5,-3 -54.2,-50 -33.8,-61.5 -131.2,-162.9 -111,-115.5 -187.5,-117.6 -209.3,-107.1 -18.4,9 19,70.3 60.5,139.2 21.6,7.9 122,48.7 197.9,145.8 64.5,82.3 108.2,187.1 152.1,251.4 4.8,0.9 7.7,1.5 12.5,2.4 20.6,-13.7 41.6,-27.8 58.2,-46.9"
         style="fill:#233862;fill-opacity:1;fill-rule:nonzero;stroke:none"
         id="path262" /><path
         d="m 15235,12760.9 c -13.2,-65.7 -106.8,-54.8 -211.4,-29.2 -104.6,25.6 -79.8,-4.8 -228.7,11.7 -148.9,16.4 -194,72 -198.5,94.1 -4.1,19.7 69.5,26.6 148.4,35.7 9.9,1.1 19.9,2.3 29.9,3.5 89.1,11.2 154.3,68.7 235.2,115.9 76.7,44.8 191.1,227 191.1,227 l 204.2,-16.2 c 0,0 -107.2,-162.7 -148.6,-233.5 -24.4,-41.6 -23.1,-96.7 -20,-139.2 1.5,-23.1 3,-46.7 -1.6,-69.8"
         style="fill:#ffb27d;fill-opacity:1;fill-rule:nonzero;stroke:none"
         id="path264" /><path
         d="m 15023.6,12731.7 c -104.6,25.6 -79.8,-4.8 -228.7,11.7 -148.9,16.4 -194,72 -198.5,94.1 -4.1,19.7 69.5,26.6 148.4,35.7 l 0.7,-1.5 c 0,0 89.3,-63.4 213.3,-66.3 101,-2.5 208,26.5 277.8,25.3 1.5,-23.1 3,-46.7 -1.6,-69.8 -13.2,-65.7 -106.8,-54.8 -211.4,-29.2"
         style="fill:#233862;fill-opacity:1;fill-rule:nonzero;stroke:none"
         id="path266" /><path
         d="m 16017.5,14066.6 190.9,-513.7 249.3,-670.7 c 0,0 67.6,-6.5 132.4,12.1 59.6,17.3 128,62.4 128,62.4 0,0 -69.2,720.1 -198.3,1133.5 -33.1,106.1 -70.2,191.9 -111.1,240.2 -200.1,236.6 -391.2,-263.8 -391.2,-263.8"
         style="fill:#233862;fill-opacity:1;fill-rule:nonzero;stroke:none"
         id="path268" /><path
         d="m 16211.6,14882.4 c 108.7,35 392.2,0.5 699.7,-55.1 85,-15.4 170.7,23.4 215.4,97.2 l 774,60.5 c 0,0 308.3,-612.9 78.3,-924.2 -134.3,-181.9 -587,-155.8 -724.2,-127.7 -377,77.3 -805.6,301.3 -861.2,312.4 -91,18.2 -127.4,-163.7 -218.4,-354.8 -90.9,-191 -855.2,-846.1 -855.2,-846.1 0,0 -117.4,-1.1 -165.9,17.1 -52.2,19.5 -71.3,45 -71.3,45 0,0 846.8,1684.7 1128.8,1775.7"
         style="fill:#2b478b;fill-opacity:1;fill-rule:nonzero;stroke:none"
         id="path270" /><path
         d="m 18095.2,14452.2 c -3.4,-444.7 -118.1,-649.1 -118.1,-649.1 -996.4,133.7 -1216.9,1050 -1216.9,1050 206.2,3.9 291.6,131.8 291.6,131.8 l 838.7,535.1 51,32.6 52.4,33.4 c 0,0 15.7,-84.8 34.8,-221.4 25.2,-181.9 56.6,-455.6 64.6,-743.2 1.6,-56.1 2.3,-112.6 1.9,-169.2"
         style="fill:#8c9df4;fill-opacity:1;fill-rule:nonzero;stroke:none"
         id="path272" /><path
         d="m 17131.3,15990.4 c 275.6,-151.8 834.7,-466.4 837.6,-464.3 0,0 205.5,-77.5 322,-0.1 194.3,129.1 298.6,476.4 -56.8,775.3 -177.2,149 -303.1,185.3 -322.3,423.3 -10.4,129.7 -188.3,558.7 -483.6,515.4 -23.7,-3.5 -47.5,-5 -71.4,-4.3 -34.4,0.9 -90.4,-4.3 -147.9,-38.5 -165.9,-98.8 -490.8,-1148.1 -77.6,-1206.8"
         style="fill:#152949;fill-opacity:1;fill-rule:nonzero;stroke:none"
         id="path274" /><path
         d="m 17362.3,16119.5 c -1.3,-0.8 135.6,-47.5 227,-7 86.1,38.1 151.3,179.7 150,179.7 -39.1,1.8 -83.8,64.5 -115.2,260.7 l -16.7,-6 -280.3,-100.9 c 0,0 20.3,-89.9 33.5,-175.6 11,-71.8 17,-140.7 1.7,-150.9"
         style="fill:#ffb27d;fill-opacity:1;fill-rule:nonzero;stroke:none"
         id="path276" /><path
         d="m 17327.1,16446 c 0,0 11.2,-48.5 27.5,-139.2 161,29 230.1,153 252.8,240.1 l -280.3,-100.9"
         style="fill:#ed975d;fill-opacity:1;fill-rule:nonzero;stroke:none"
         id="path278" /><path
         d="m 17285.4,16356.8 c 0,0 383.5,51.4 347.7,289.8 -35.7,238.3 -10.2,405.4 -256.6,382.6 -246.4,-22.7 -280.2,-120.8 -287.6,-203.3 -7.5,-82.4 95.8,-476.4 196.5,-469.1"
         style="fill:#ffb27d;fill-opacity:1;fill-rule:nonzero;stroke:none"
         id="path280" /><path
         d="m 17102.8,16956.6 c 0,0 245.5,-211.6 412.5,-228.6 167,-17.1 230.2,36.5 230.2,36.5 0,0 -98.4,81.7 -157.6,213.6 -17.5,38.9 -54.4,65.6 -96.8,69.2 -119.3,10.3 -345.3,15 -388.3,-90.7"
         style="fill:#152949;fill-opacity:1;fill-rule:nonzero;stroke:none"
         id="path282" /><path
         d="m 17256.3,16975.5 c 0,0 -82.1,-79.4 -108,-138.3 -24.9,-56.8 -32.4,-192.8 -12.6,-246.7 0,0 -127.9,248.8 -55.5,369.7 76.9,128.1 176.1,15.3 176.1,15.3"
         style="fill:#152949;fill-opacity:1;fill-rule:nonzero;stroke:none"
         id="path284" /><path
         d="m 17039.3,15554.6 c 11.6,-776.3 3.2,-614.1 88.1,-687.7 20.5,-17.8 78,-28.3 153.7,-33.3 238.1,-15.8 656.5,23.4 672.4,67.4 54.9,152.2 16.1,199.4 62,432.5 4.7,24.8 10.7,51.6 17.6,80.8 38.2,160.1 75.3,214.5 -60.2,471.6 -122.8,233 -248.1,423.6 -259.6,416.8 -324.2,-192.5 -352.7,-32.3 -352.7,-32.3 0,0 -326.9,-337.2 -321.3,-715.8"
         style="fill:#8c9df4;fill-opacity:1;fill-rule:nonzero;stroke:none"
         id="path286" /><path
         d="m 16208.4,13552.9 249.3,-670.7 c 0,0 67.6,-6.5 132.4,12.1 59.6,17.3 128,62.4 128,62.4 0,0 -69.2,720.1 -198.3,1133.5 l -311.4,-537.3"
         style="fill:#2b478b;fill-opacity:1;fill-rule:nonzero;stroke:none"
         id="path288" /><path
         d="m 17360.6,16270.4 c 0,0 -294.1,-43 -336.1,-205.2 -37.3,-144.2 -170.9,-960.9 -170.9,-960.9 0,0 60.2,-141.3 138.5,-63 78.3,78.4 246.5,815.7 246.5,815.7 l 122,413.4"
         style="fill:#8c9df4;fill-opacity:1;fill-rule:nonzero;stroke:none"
         id="path290" /><path
         d="m 17269.8,14951.1 c 0,0 -49.3,-63.5 -65.4,-71.1 -16.1,-7.6 -26.5,-5.7 -26.5,-5.7 l 33.1,59.7 58.8,17.1"
         style="fill:#ffb27d;fill-opacity:1;fill-rule:nonzero;stroke:none"
         id="path292" /><path
         d="m 17281.1,15016.4 -143,-69.5 c 0,0 6.1,-9.9 23.7,-9.1 17.6,0.8 62,17 62,17 l 57.3,61.6"
         style="fill:#ffb27d;fill-opacity:1;fill-rule:nonzero;stroke:none"
         id="path294" /><path
         d="m 18093.3,14621.4 c -221.2,17.6 -779.5,205.7 -684,338.5 44.1,61.4 339.8,88.7 492.4,283.4 41.2,52.5 -5.1,195.6 -11.2,276.7 -2.5,35 -0.8,60.3 11.2,66 11.1,5.3 25.2,-9.4 39.8,-33.4 38.2,-62.8 79.9,-189.7 79.9,-189.7 l 7.3,1.7 c 25.2,-181.9 56.6,-455.6 64.6,-743.2"
         style="fill:#6980e0;fill-opacity:1;fill-rule:nonzero;stroke:none"
         id="path296" /><path
         d="m 17553.8,14985 c 0,0 -234.8,52.3 -272.7,31.4 -37.9,-20.8 -130.5,-96.7 -142.1,-123.1 -11.6,-26.4 84.4,20 115.6,28.4 20.2,5.4 73.4,-13.1 99.8,-21.9 110.8,-36.9 178.7,-17.9 178.7,-17.9 l 20.7,103.1"
         style="fill:#ffb27d;fill-opacity:1;fill-rule:nonzero;stroke:none"
         id="path298" /><path
         d="m 17713.3,16302.7 c 0,0 313.2,-20.9 422.3,-173.1 153.7,-214.3 318.6,-1130.8 143.9,-1252.6 -196.7,-137.2 -755.5,-32.8 -755.5,-32.8 0,0 -52.3,155.4 9.1,161.2 166.5,15.9 491.8,85.2 488.7,157.8 -4.6,110.5 -209.7,477.1 -209.7,549.9 0,72.8 -98.8,589.6 -98.8,589.6"
         style="fill:#8c9df4;fill-opacity:1;fill-rule:nonzero;stroke:none"
         id="path300" /><path
         d="m 16059.5,14853.1 h 1494.3 v -33 h -1481 l -13.3,33"
         style="fill:#f99746;fill-opacity:1;fill-rule:nonzero;stroke:none"
         id="path302" /><path
         d="m 17204.4,14820.1 h -1131.6 l -340.4,846.6 h 1129.9 l 342.1,-846.6"
         style="fill:#f99746;fill-opacity:1;fill-rule:nonzero;stroke:none"
         id="path304" /><path
         d="m 16358.4,15243.4 c -8.5,29.7 8.7,53.9 38.5,53.9 29.7,0 60.8,-24.2 69.3,-53.9 8.5,-29.8 -8.7,-53.9 -38.4,-53.9 -29.8,0 -60.8,24.1 -69.4,53.9"
         style="fill:#ffffff;fill-opacity:1;fill-rule:nonzero;stroke:none"
         id="path306" /><path
         d="M 10475.6,10881.1 H 8073.02 c -278.2,0 -503.73,225.5 -503.73,503.7 v 3238.7 c 0,278.2 225.53,503.7 503.73,503.7 h 5333.78 c 278.2,0 503.7,-225.5 503.7,-503.7 v -134.8 c -416.4,-2.9 -962.9,-116.5 -1628.2,-486.8 0,0 -901.7,-342.8 -1070.8,-1225.1 -35.6,-186.1 -121.3,-359.7 -245.4,-504.4 -190.9,-222.6 -440.8,-617.3 -460.7,-1173.3 -2.7,-73.8 -12.7,-146.7 -29.8,-218 m -1277.52,1719.3 c 12.54,-40.6 52.41,-99.3 174.69,-132 48.4,-12.9 91.01,-17.7 127.79,-17.7 56.57,0 99.34,11.5 128.2,23.3 33.59,13.7 69.17,22 105.4,23.7 250.08,11.8 334.04,206.6 334.04,206.6 159.2,62.7 131.8,250 131.8,250 110,146.7 61.2,309.4 61.2,309.4 59.9,259.6 -46.6,376 -46.6,376 11,121.7 -18.9,207.8 -47.7,260.3 -24.7,44.9 -39.6,94.6 -43.8,145.6 -7.8,96.5 -49,167.3 -83.9,211 -28.7,36.1 -48.39,78.3 -58.82,123.3 -39.45,169.9 -211.63,236.3 -211.63,236.3 -134.86,76.1 -245.3,98.7 -328.99,98.7 -122.81,0 -187.98,-48.7 -187.98,-48.7 l -53.7,-27.3 -53.7,27.3 c 0,0 -65.17,48.7 -187.98,48.7 -83.68,0 -194.13,-22.6 -328.98,-98.7 0,0 -180.38,-69.5 -214.19,-248.5 -7.14,-37.8 -24.28,-73 -49.1,-102.3 -38.18,-45.2 -88.17,-125.3 -92.17,-238.1 -1.42,-40 -13.4,-78.8 -34.34,-112.9 -26.24,-42.8 -57.04,-114.6 -58.38,-217 -0.46,-34.5 -8.77,-68.5 -24.1,-99.5 -26.94,-54.4 -59.64,-163.3 -20.2,-334.2 0,0 -37.87,-126.4 28.47,-256.8 17.71,-34.9 28.8,-72.7 32.19,-111.6 4.4,-50.6 23.07,-122.2 88.44,-167.7 28.54,-19.9 53.27,-44.7 73.84,-72.8 41.7,-56.8 130.7,-144 289.88,-156.2 43.71,-3.4 86.71,-12.6 127.83,-27.8 28.53,-10.6 68.57,-20.1 120.03,-20.1 36.77,0 79.37,4.8 127.77,17.7 122.28,32.7 162.15,91.4 174.69,132"
         style="fill:#bacdfe;fill-opacity:1;fill-rule:nonzero;stroke:none"
         id="path308" /><path
         d="m 13406.8,10881.1 h -2931.2 c 17.1,71.3 27.1,144.2 29.8,218 19.9,556 269.8,950.7 460.7,1173.3 124.1,144.7 209.8,318.3 245.4,504.4 169.1,882.3 1070.8,1225.1 1070.8,1225.1 665.3,370.3 1211.8,483.9 1628.2,486.8 v -3103.9 c 0,-278.2 -225.5,-503.7 -503.7,-503.7"
         style="fill:#bdb6da;fill-opacity:1;fill-rule:nonzero;stroke:none"
         id="path310" /><path
         d="m 9251.78,14666.2 c 0,0 184.21,137.8 516.97,-50 0,0 172.18,-66.4 211.63,-236.3 10.43,-45 30.12,-87.2 58.82,-123.3 34.9,-43.7 76.1,-114.5 83.9,-211 4.2,-51 19.1,-100.7 43.8,-145.6 28.8,-52.5 58.7,-138.6 47.7,-260.3 0,0 106.5,-116.4 46.6,-376 0,0 48.8,-162.7 -61.2,-309.4 0,0 27.4,-187.3 -131.8,-250 0,0 -83.96,-194.8 -334.04,-206.6 -36.23,-1.7 -71.81,-10 -105.4,-23.7 -47.62,-19.4 -133.13,-38.3 -255.99,-5.6 -199.66,53.3 -179.62,176.2 -179.62,176.2 v 1991.8 l 58.63,29.8"
         style="fill:#9db0f4;fill-opacity:1;fill-rule:nonzero;stroke:none"
         id="path312" /><path
         d="m 9144.38,14666.2 c 0,0 -184.21,137.8 -516.96,-50 0,0 -180.38,-69.5 -214.19,-248.5 -7.14,-37.8 -24.28,-73 -49.1,-102.3 -38.18,-45.2 -88.17,-125.3 -92.17,-238.1 -1.42,-40 -13.4,-78.8 -34.34,-112.9 -26.24,-42.8 -57.04,-114.6 -58.38,-217 -0.46,-34.5 -8.77,-68.5 -24.1,-99.5 -26.94,-54.4 -59.64,-163.3 -20.2,-334.2 0,0 -37.87,-126.4 28.47,-256.8 17.71,-34.9 28.8,-72.7 32.19,-111.6 4.4,-50.6 23.07,-122.2 88.44,-167.7 28.54,-19.9 53.27,-44.7 73.84,-72.8 41.7,-56.8 130.7,-144 289.88,-156.2 43.71,-3.4 86.71,-12.6 127.83,-27.8 48.92,-18.1 131.68,-33.3 247.8,-2.4 199.66,53.3 179.62,176.2 179.62,176.2 v 1991.8 l -58.63,29.8"
         style="fill:#9db0f4;fill-opacity:1;fill-rule:nonzero;stroke:none"
         id="path314" /><path
         d="m 8669.98,13266.2 c 0.17,1.6 4.6,39.9 29.42,84.4 19.78,35.5 56.34,81.1 121.39,110.5 -33.9,29.4 -63.81,66.5 -89.09,110.9 -15.16,26.7 -26.91,52.8 -35.88,76 -10.71,27.8 -23.01,56.9 -52.03,63.4 -28.04,6.3 -67.01,26.1 -83.67,41.5 -57.4,53 -62.46,116.4 -63.76,118.3 0,0 46.62,-59.8 115.44,-88.5 74.15,-30.9 140.21,-36.6 178.81,-36.5 22.49,0 35.67,1.9 35.67,1.9 -5.18,-6.9 -12.93,-13.4 -21.98,-19.2 -44.94,-29.1 -60.07,-88 -33.6,-134.6 l 0.67,-1.1 c 56.19,-98.1 133.5,-153.9 229.82,-165.8 0,0 -40.88,-9.5 -80.6,-9.5 -3.3,0 -6.59,0 -9.85,0.2 -3.52,0.2 -7.03,0.2 -10.54,0.2 -57.07,0 -112.44,-20.3 -154.98,-58.7 -51.11,-46.1 -75.24,-93.4 -75.24,-93.4"
         style="fill:#5a79bb;fill-opacity:1;fill-rule:nonzero;stroke:none"
         id="path316" /><path
         d="m 8652.58,13075.9 c -4.6,0 -9.21,0.2 -13.82,0.5 -62.37,3.7 -115.73,33.1 -154.31,85.2 -60.06,81 -46.39,154.7 -24.33,202.2 l 0.77,1.7 c 1.82,3.8 3.48,5.4 4.97,5.4 5.97,0 9.07,-26.5 8.19,-43.6 -2.35,-45.7 33.19,-116.3 77.42,-154.6 51.19,-44.3 134.11,-43.3 197.31,-45.4 23.67,-0.8 43.63,-2.4 22.51,-16.7 -30.22,-20.6 -76.66,-34.7 -118.71,-34.7"
         style="fill:#5a79bb;fill-opacity:1;fill-rule:nonzero;stroke:none"
         id="path318" /><path
         d="m 8993.31,13829.4 c -19.71,0 -40.65,3.3 -59.1,9.8 -3.36,1.2 -6.69,2.5 -9.99,3.9 -44.58,18.9 -75.91,54.2 -90.58,102.3 -22.85,74.7 6.26,125 34.7,154 l 1,1 c 1.95,1.9 3.42,2.8 4.48,2.8 5.31,0 0.51,-21.4 -4.77,-34.1 -13.58,-32.8 -5.95,-93.6 16.42,-133 25.9,-45.6 86.71,-66.4 132.31,-84.3 17.07,-6.8 31.24,-13.1 12.1,-18.1 -10.93,-2.8 -23.48,-4.3 -36.57,-4.3"
         style="fill:#5a79bb;fill-opacity:1;fill-rule:nonzero;stroke:none"
         id="path320" /><path
         d="m 8502.59,12828.4 c -15.6,0 -30.76,7.8 -39.45,22 -75.59,123 -176.89,212.3 -178.18,212.9 6.33,-2.9 156.08,-73.7 239.49,-229.4 -6.95,-3.8 -14.46,-5.5 -21.86,-5.5"
         style="fill:#5a79bb;fill-opacity:1;fill-rule:nonzero;stroke:none"
         id="path322" /><path
         d="m 9066.97,12828.4 c -14.96,35.9 -37.24,59.2 -66.22,69.2 -12.38,4.3 -25.28,5.9 -37.81,5.9 -18.78,0 -36.71,-3.7 -50.68,-7.7 -25.67,-7.4 -44.02,-17.5 -44.19,-17.7 0,0 35.74,70.3 97.27,70.3 0.61,0 1.23,0 1.85,0 -52.46,109.6 42.58,188.4 43.97,194 0,0 -15.34,-59.5 -15.22,-103.4 0.1,-36.9 7.02,-85.3 39.2,-107.5 54.91,-33.8 31.83,-103.1 31.83,-103.1"
         style="fill:#5a79bb;fill-opacity:1;fill-rule:nonzero;stroke:none"
         id="path324" /><path
         d="m 8494.44,14061 c -11.22,0 -18.87,1.5 -18.87,1.5 33.83,19.4 54.15,44.4 60.43,74.4 6.69,32 -3.3,65.3 -12.86,87.6 -10.53,24.5 -22.91,41.4 -23.04,41.6 0,0 75.63,-27.2 82.05,-89.5 28.6,18.3 56.26,25 81.39,25 64.65,0 112.55,-43.9 116.67,-44.4 0,0 -32.93,4.2 -67.68,4.2 -12.53,0 -25.31,-0.6 -36.85,-2.1 -36.59,-4.7 -83.78,-17.6 -101.75,-52.3 -17.96,-39.5 -56.34,-46 -79.49,-46"
         style="fill:#5a79bb;fill-opacity:1;fill-rule:nonzero;stroke:none"
         id="path326" /><path
         d="m 8238.67,13413.3 c -11.22,0 -18.87,1.5 -18.87,1.5 33.84,19.4 54.16,44.4 60.43,74.4 6.69,32 -3.3,65.3 -12.86,87.5 -10.53,24.6 -22.9,41.5 -23.03,41.7 0,0 75.63,-27.2 82.04,-89.6 28.61,18.4 56.26,25.1 81.4,25.1 64.64,0 112.54,-44 116.67,-44.4 0,0 -32.94,4.2 -67.69,4.2 -12.53,0 -25.3,-0.6 -36.85,-2.1 -36.58,-4.7 -83.78,-17.6 -101.75,-52.3 -17.96,-39.5 -56.34,-46 -79.49,-46"
         style="fill:#5a79bb;fill-opacity:1;fill-rule:nonzero;stroke:none"
         id="path328" /><path
         d="m 8848.75,14244.2 c 0,0 -28.83,86.5 39.74,128.7 40.18,27.7 48.82,88.2 48.94,134.3 0.15,54.8 -18.99,129.2 -18.99,129.2 1.72,-7 120.4,-105.5 54.9,-242.4 0.78,0 1.55,0 2.32,0 76.81,0 121.45,-87.7 121.45,-87.7 -0.22,0.1 -23.12,12.8 -55.18,22.1 -17.45,5 -39.83,9.6 -63.29,9.6 -15.64,0 -31.75,-2.1 -47.21,-7.4 -36.19,-12.4 -64.01,-41.5 -82.68,-86.4"
         style="fill:#5a79bb;fill-opacity:1;fill-rule:nonzero;stroke:none"
         id="path330" /><path
         d="m 8599.35,12595.2 c 0,0 -26.91,80.9 37.1,120.3 37.52,25.8 45.58,82.3 45.7,125.3 0.14,51.2 -17.74,120.6 -17.74,120.6 1.62,-6.6 112.41,-98.5 51.27,-226.3 0.71,0 1.43,0 2.14,0 71.73,0 113.41,-81.8 113.41,-81.8 -0.21,0.1 -21.59,11.9 -51.52,20.5 -16.3,4.7 -37.19,9 -59.09,9 -14.6,0 -29.65,-1.9 -44.08,-6.9 -33.78,-11.6 -59.75,-38.7 -77.19,-80.7"
         style="fill:#5a79bb;fill-opacity:1;fill-rule:nonzero;stroke:none"
         id="path332" /><path
         d="m 9724.53,13266.2 c 0,0 -24.13,47.3 -75.25,93.4 -42.53,38.4 -97.9,58.7 -154.97,58.7 -3.51,0 -7.02,0 -10.54,-0.2 -3.26,-0.2 -6.56,-0.2 -9.85,-0.2 -39.73,0 -80.6,9.5 -80.6,9.5 96.31,11.9 173.64,67.7 229.81,165.8 l 0.67,1.1 c 26.47,46.6 11.35,105.5 -33.59,134.6 -9.05,5.8 -16.81,12.3 -21.98,19.2 0,0 13.18,-1.9 35.67,-1.9 38.6,0 104.66,5.6 178.8,36.5 68.82,28.7 115.44,88.5 115.44,88.5 -1.3,-1.9 -6.35,-65.3 -63.75,-118.3 -16.67,-15.4 -55.64,-35.2 -83.67,-41.5 -29.02,-6.5 -41.33,-35.6 -52.03,-63.4 -8.97,-23.2 -20.72,-49.3 -35.88,-76 -25.27,-44.4 -55.19,-81.5 -89.09,-110.9 65.04,-29.4 101.61,-75 121.38,-110.5 24.82,-44.5 29.25,-82.8 29.43,-84.4"
         style="fill:#5a79bb;fill-opacity:1;fill-rule:nonzero;stroke:none"
         id="path334" /><path
         d="m 9741.93,13075.9 c -42.05,0 -88.49,14.1 -118.71,34.7 -21.12,14.3 -1.16,15.9 22.51,16.7 63.2,2.1 146.12,1.1 197.31,45.4 44.23,38.3 79.77,108.9 77.42,154.6 -0.88,17.1 2.22,43.6 8.19,43.6 1.49,0 3.15,-1.6 4.98,-5.4 l 0.76,-1.7 c 22.05,-47.5 35.73,-121.2 -24.32,-202.2 -38.59,-52.1 -91.95,-81.5 -154.31,-85.2 -4.62,-0.3 -9.23,-0.5 -13.83,-0.5"
         style="fill:#5a79bb;fill-opacity:1;fill-rule:nonzero;stroke:none"
         id="path336" /><path
         d="m 9401.2,13829.4 c -13.09,0 -25.64,1.5 -36.57,4.3 -19.14,5 -4.98,11.3 12.1,18.1 45.6,17.9 106.41,38.7 132.3,84.3 22.37,39.4 30.01,100.2 16.43,133 -5.28,12.7 -10.07,34.1 -4.77,34.1 1.06,0 2.53,-0.9 4.48,-2.8 l 0.99,-1 c 28.44,-29 57.55,-79.3 34.71,-154 -14.68,-48.1 -46,-83.4 -90.58,-102.3 -3.3,-1.4 -6.64,-2.7 -9.99,-3.9 -18.46,-6.5 -39.39,-9.8 -59.1,-9.8"
         style="fill:#5a79bb;fill-opacity:1;fill-rule:nonzero;stroke:none"
         id="path338" /><path
         d="m 9876.87,12894 c -12.39,0 -24.73,4.9 -33.82,14.6 128.82,120.9 293.35,140.1 300.25,140.9 -1.4,-0.2 -125.9,-52.4 -236.87,-144.8 -8.62,-7.2 -19.11,-10.7 -29.56,-10.7"
         style="fill:#5a79bb;fill-opacity:1;fill-rule:nonzero;stroke:none"
         id="path340" /><path
         d="m 9327.55,12828.4 c 0,0 -23.09,69.3 31.82,103.1 32.19,22.2 39.1,70.6 39.19,107.5 0.12,43.9 -15.2,103.4 -15.2,103.4 1.38,-5.6 96.42,-84.4 43.97,-194 0.61,0 1.23,0 1.84,0 61.53,0 97.28,-70.3 97.28,-70.3 -0.18,0.2 -18.53,10.3 -44.2,17.7 -13.97,4 -31.9,7.7 -50.69,7.7 -12.52,0 -25.43,-1.6 -37.8,-5.9 -28.99,-10 -51.26,-33.3 -66.21,-69.2"
         style="fill:#5a79bb;fill-opacity:1;fill-rule:nonzero;stroke:none"
         id="path342" /><path
         d="m 9900.07,14061 c -23.15,0 -61.53,6.5 -79.49,46 -17.98,34.7 -65.16,47.6 -101.75,52.3 -11.54,1.5 -24.32,2.1 -36.85,2.1 -34.75,0 -67.69,-4.2 -67.69,-4.2 4.13,0.5 52.02,44.4 116.67,44.4 25.13,0 52.79,-6.7 81.4,-25 6.41,62.3 82.04,89.5 82.04,89.5 -0.12,-0.2 -12.5,-17.1 -23.03,-41.6 -9.56,-22.3 -19.55,-55.6 -12.86,-87.6 6.27,-30 26.6,-55 60.43,-74.4 0,0 -7.65,-1.5 -18.87,-1.5"
         style="fill:#5a79bb;fill-opacity:1;fill-rule:nonzero;stroke:none"
         id="path344" /><path
         d="m 10155.8,13413.3 c -23.1,0 -61.5,6.5 -79.5,46 -17.9,34.7 -65.1,47.6 -101.71,52.3 -11.54,1.5 -24.31,2.1 -36.84,2.1 -34.75,0 -67.69,-4.2 -67.69,-4.2 4.13,0.4 52.02,44.4 116.67,44.4 25.17,0 52.77,-6.7 81.37,-25.1 6.4,62.4 82.1,89.6 82.1,89.6 -0.2,-0.2 -12.5,-17.1 -23.1,-41.7 -9.5,-22.2 -19.5,-55.5 -12.8,-87.5 6.2,-30 26.6,-55 60.4,-74.4 0,0 -7.6,-1.5 -18.9,-1.5"
         style="fill:#5a79bb;fill-opacity:1;fill-rule:nonzero;stroke:none"
         id="path346" /><path
         d="m 9545.76,14244.2 c -18.67,44.9 -46.49,74 -82.68,86.4 -15.46,5.3 -31.58,7.4 -47.22,7.4 -23.45,0 -45.83,-4.6 -63.27,-9.6 -32.07,-9.3 -54.97,-22 -55.19,-22.1 0,0 44.64,87.7 121.45,87.7 0.77,0 1.54,0 2.31,0 -65.49,136.9 53.19,235.4 54.92,242.4 0,0 -19.15,-74.4 -19,-129.2 0.11,-46.1 8.75,-106.6 48.94,-134.3 68.57,-42.2 39.74,-128.7 39.74,-128.7"
         style="fill:#5a79bb;fill-opacity:1;fill-rule:nonzero;stroke:none"
         id="path348" /><path
         d="m 9795.15,12595.2 c -17.43,42 -43.41,69.1 -77.19,80.7 -14.42,5 -29.47,6.9 -44.07,6.9 -21.9,0 -42.8,-4.3 -59.09,-9 -29.92,-8.6 -51.31,-20.4 -51.52,-20.5 0,0 41.68,81.8 113.4,81.8 0.71,0 1.43,0 2.15,0 -61.14,127.8 49.65,219.7 51.26,226.3 0,0 -17.86,-69.4 -17.73,-120.6 0.11,-43 8.18,-99.5 45.69,-125.3 64.01,-39.4 37.1,-120.3 37.1,-120.3"
         style="fill:#5a79bb;fill-opacity:1;fill-rule:nonzero;stroke:none"
         id="path350" /><path
         d="m 9220.54,12600.4 h -22.45 c 7.92,25.7 4.92,44.2 4.92,44.2 v 1991.8 l 22.46,-0.1 -4.93,-2035.9"
         style="fill:#5a79bb;fill-opacity:1;fill-rule:nonzero;stroke:none"
         id="path352" /><path
         d="m 9198.09,12600.4 -22.47,0.1 4.93,2035.9 h 22.46 v -1991.8 c 0,0 3,-18.5 -4.92,-44.2"
         style="fill:#5a79bb;fill-opacity:1;fill-rule:nonzero;stroke:none"
         id="path354" /><path
         d="M 12151.8,14636.4 H 10470 v 171.3 h 1681.8 v -171.3"
         style="fill:#2b478b;fill-opacity:1;fill-rule:nonzero;stroke:none"
         id="path356" /><path
         d="M 11816.2,14308.6 H 10470 v 85.6 h 1346.2 v -85.6"
         style="fill:#9db0f4;fill-opacity:1;fill-rule:nonzero;stroke:none"
         id="path358" /><path
         d="M 11348.9,14077.9 H 10470 v 85.7 h 878.9 v -85.7"
         style="fill:#2b478b;fill-opacity:1;fill-rule:nonzero;stroke:none"
         id="path360" /><path
         d="m 12359.3,14077.9 h -878.9 v 85.7 h 878.9 v -85.7"
         style="fill:#9db0f4;fill-opacity:1;fill-rule:nonzero;stroke:none"
         id="path362" /><path
         d="m 12765.3,14308.6 h -812 v 85.6 h 812 v -85.6"
         style="fill:#2b478b;fill-opacity:1;fill-rule:nonzero;stroke:none"
         id="path364" /><path
         d="m 13033,14636.4 h -780.6 v 171.3 h 780.6 v -171.3"
         style="fill:#f78248;fill-opacity:1;fill-rule:nonzero;stroke:none"
         id="path366" /><path
         d="M 9423.23,11895.6 H 8079.98 v 136.8 h 1343.25 v -136.8"
         style="fill:#2b478b;fill-opacity:1;fill-rule:nonzero;stroke:none"
         id="path368" /><path
         d="M 9155.16,11633.8 H 8079.98 v 68.4 h 1075.18 v -68.4"
         style="fill:#9db0f4;fill-opacity:1;fill-rule:nonzero;stroke:none"
         id="path370" /><path
         d="m 8781.93,11449.5 h -701.95 v 68.4 h 701.95 v -68.4"
         style="fill:#9db0f4;fill-opacity:1;fill-rule:nonzero;stroke:none"
         id="path372" /><path
         d="m 9588.96,11449.5 h -701.95 v 68.4 h 701.95 v -68.4"
         style="fill:#2b478b;fill-opacity:1;fill-rule:nonzero;stroke:none"
         id="path374" /><path
         d="m 9913.19,11633.8 h -648.46 v 68.4 h 648.46 v -68.4"
         style="fill:#9db0f4;fill-opacity:1;fill-rule:nonzero;stroke:none"
         id="path376" /><path
         d="m 10127,11895.6 h -623.39 v 136.8 H 10127 v -136.8"
         style="fill:#f78248;fill-opacity:1;fill-rule:nonzero;stroke:none"
         id="path378" /><path
         d="m 12160.7,13596.6 c 39.8,-39.4 40.2,-103.7 0.8,-143.5 -39.3,-39.8 -103.6,-40.2 -143.4,-0.9 -39.9,39.4 -40.2,103.6 -0.9,143.5 39.4,39.8 103.6,40.2 143.5,0.9"
         style="fill:#ffffff;fill-opacity:1;fill-rule:nonzero;stroke:none"
         id="path380" /><path
         d="m 11754.7,13169.4 c 44.3,-43.8 44.7,-115.3 0.9,-159.6 -43.8,-44.4 -115.2,-44.8 -159.6,-1 -44.3,43.8 -44.7,115.3 -0.9,159.6 43.8,44.4 115.2,44.8 159.6,1"
         style="fill:#ffffff;fill-opacity:1;fill-rule:nonzero;stroke:none"
         id="path382" /><path
         d="m 11253.3,13393.9 c 37.9,-37.4 38.2,-98.4 0.8,-136.2 -37.4,-37.9 -98.3,-38.2 -136.2,-0.8 -37.8,37.4 -38.2,98.3 -0.8,136.2 37.4,37.8 98.4,38.2 136.2,0.8"
         style="fill:#ffffff;fill-opacity:1;fill-rule:nonzero;stroke:none"
         id="path384" /><path
         d="m 10797.6,13132.7 c 37.8,-37.4 38.2,-98.4 0.8,-136.2 -37.4,-37.9 -98.4,-38.2 -136.2,-0.8 -37.9,37.3 -38.2,98.3 -0.8,136.2 37.4,37.8 98.4,38.2 136.2,0.8"
         style="fill:#ffffff;fill-opacity:1;fill-rule:nonzero;stroke:none"
         id="path386" /><path
         d="m 10725.6,13071.6 459.7,263.5 488.1,-235.6 409.8,430.8 12.4,-11.8 -418.4,-439.8 -491.2,237 -451.8,-259 -8.6,14.9"
         style="fill:#ffffff;fill-opacity:1;fill-rule:nonzero;stroke:none"
         id="path388" /><path
         d="m 12402.2,12924.1 c -37.9,26.7 -47,79.2 -20.3,117.1 26.8,38 79.2,47.1 117.2,20.4 37.9,-26.8 47,-79.2 20.3,-117.2 -26.7,-38 -79.2,-47.1 -117.2,-20.3"
         style="fill:#ffffff;fill-opacity:1;fill-rule:nonzero;stroke:none"
         id="path390" /><path
         d="m 12675.8,13328.8 c -42.3,29.8 -52.4,88.1 -22.6,130.4 29.7,42.2 88.1,52.3 130.3,22.6 42.2,-29.8 52.4,-88.1 22.6,-130.4 -29.7,-42.2 -88.1,-52.3 -130.3,-22.6"
         style="fill:#ffffff;fill-opacity:1;fill-rule:nonzero;stroke:none"
         id="path392" /><path
         d="m 13116.3,13213.8 c -36,25.4 -44.7,75.2 -19.3,111.3 25.4,36 75.2,44.7 111.3,19.3 36,-25.4 44.7,-75.2 19.3,-111.3 -25.4,-36 -75.2,-44.7 -111.3,-19.3"
         style="fill:#ffffff;fill-opacity:1;fill-rule:nonzero;stroke:none"
         id="path394" /><path
         d="m 13453.2,13489.7 c -36.1,25.4 -44.7,75.2 -19.3,111.2 25.4,36.1 75.2,44.7 111.3,19.3 36,-25.3 44.6,-75.2 19.2,-111.2 -25.3,-36.1 -75.2,-44.7 -111.2,-19.3"
         style="fill:#ffffff;fill-opacity:1;fill-rule:nonzero;stroke:none"
         id="path396" /><path
         d="m 13503.7,13549.5 -339.8,-278.2 -431.3,125.7 -276.1,-408.2 -11.7,8 281.9,416.8 434,-126.6 334,273.5 9,-11"
         style="fill:#ffffff;fill-opacity:1;fill-rule:nonzero;stroke:none"
         id="path398" /><path
         d="m 11515.6,11543.1 -98,514.6 -42.8,-219.8 h -577.5 v 34.7 h 548.9 l 71.8,369 102.4,-538.1 46.1,181.6 h 99.8 l 68,316.8 87.1,-483 45.8,184.9 h 205.9 l 75.8,248.6 66.4,-435.2 53.3,186.6 h 170.4 l 50.1,273 107.6,-429.4 38.9,156.4 h 220.4 l 11.6,-130.3 121.4,474.6 79.7,-345.5 h 358.5 v -34.8 h -386.1 l -53.9,233.2 -136.3,-533.1 -26.7,301.2 h -161.4 l -66.1,-265.1 -102.4,408.7 -26.3,-143.6 h -173.2 l -89.9,-314.8 -67.3,441.8 -38.7,-127 h -204.5 l -78.4,-316.5 -84.7,469.9 -37,-172.1 h -100.7 l -78,-307.3"
         style="fill:#ffffff;fill-opacity:1;fill-rule:nonzero;stroke:none"
         id="path400" /><path
         d="m 10643.1,11223.9 h 2926.3 v 1217.2 h -2926.3 z m 2945.5,-19.2 H 10624 v 1255.5 h 2964.6 v -1255.5"
         style="fill:#ffffff;fill-opacity:1;fill-rule:nonzero;stroke:none"
         id="path402" /><path
         d="M 27117.6,1486.9 H 2524 c -16.87,0 -30.68,13.8 -30.68,30.7 v 17.5 c 0,16.9 13.81,30.7 30.68,30.7 h 24593.6 c 16.9,0 30.7,-13.8 30.7,-30.7 v -17.5 c 0,-16.9 -13.8,-30.7 -30.7,-30.7"
         style="fill:#233862;fill-opacity:1;fill-rule:nonzero;stroke:none"
         id="path404" /></g></g></svg>
